<?xml version="1.0" encoding="utf-8"?>
<!-- Generator: Adobe Illustrator 21.1.0, SVG Export Plug-In . SVG Version: 6.00 Build 0)  -->
<svg version="1.1" id="Слой_2" xmlns="http://www.w3.org/2000/svg" xmlns:xlink="http://www.w3.org/1999/xlink" x="0px" y="0px"
	 viewBox="0 0 21 21" style="enable-background:new 0 0 21 21;" xml:space="preserve">
<style type="text/css">
	.st0{fill:#bb280f;}
	.st1{fill:#adadad;}
</style>
<g>
	<path class="st0" d="M10,5c2.8,0,5,2.2,5,5s-2.2,5-5,5s-5-2.2-5-5S7.2,5,10,5 M10,3c-3.9,0-7,3.1-7,7s3.1,7,7,7s7-3.1,7-7
		S13.9,3,10,3L10,3z"/>
</g>
<g>
	<path class="st1" d="M10,6c2.2,0,4,1.8,4,4s-1.8,4-4,4s-4-1.8-4-4S7.8,6,10,6 M10,5c-2.8,0-5,2.2-5,5s2.2,5,5,5s5-2.2,5-5
		S12.8,5,10,5L10,5z"/>
</g>
</svg>
