<?xml version="1.0" encoding="utf-8"?>
<!-- Generator: Adobe Illustrator 21.1.0, SVG Export Plug-In . SVG Version: 6.00 Build 0)  -->
<svg version="1.1" id="Слой_3" xmlns="http://www.w3.org/2000/svg" xmlns:xlink="http://www.w3.org/1999/xlink" x="0px" y="0px"
	 viewBox="0 0 21 21" style="enable-background:new 0 0 21 21;" xml:space="preserve">
<style type="text/css">
	.st0{fill-rule:evenodd;clip-rule:evenodd;fill:#000307;}
	.st1{fill-rule:evenodd;clip-rule:evenodd;fill:#000105;}
</style>
<g>
	<path class="st0" d="M10,7h3c0-1.7-1.3-3-3-3H4C2.3,4,1,5.3,1,7v2c0,1.7,1.3,3,3,3h3v-2C7,8.3,8.3,7,10,7z"/>
</g>
<g>
	<path d="M16,8c1.1,0,2,0.9,2,2v2c0,1.1-0.9,2-2,2h-6c-1.1,0-2-0.9-2-2v-2c0-1.1,0.9-2,2-2H16 M16,7h-6c-1.7,0-3,1.3-3,3v2
		c0,1.7,1.3,3,3,3h6c1.7,0,3-1.3,3-3v-2C19,8.3,17.7,7,16,7L16,7z"/>
</g>
<polygon class="st1" points="15.1,16.9 16.2,15 14.1,15 "/>
</svg>
