<?xml version="1.0" encoding="utf-8"?>
<!-- Generator: Adobe Illustrator 21.1.0, SVG Export Plug-In . SVG Version: 6.00 Build 0)  -->
<svg version="1.1" id="Слой_2" xmlns="http://www.w3.org/2000/svg" xmlns:xlink="http://www.w3.org/1999/xlink" x="0px" y="0px"
	 viewBox="0 0 21 21" style="enable-background:new 0 0 21 21;" xml:space="preserve">
<style type="text/css">
	.st0{fill:#F2F2F2;}
</style>
<g>
	<polygon class="st0" points="16.3,6.6 15.4,15 4.6,15 3.9,6.7 10,9.9 	"/>
	<polygon class="st0" points="16,5 10,10.2 4,5 10,5 	"/>
</g>
<path d="M5,7.6V15H3.8C3.4,15,3,14.7,3,14.4V6.5l1.3,0L5,7.6z"/>
<path d="M17,6.6v7.8c0,0.3-0.4,0.6-0.8,0.6H15V7.7l0.7-1.2L17,6.6z"/>
<path d="M17,5.6v0.7l-1.6,1.1L10,11.1L4.6,7.4L3,6.3V5.6C3,5.3,3.3,5,3.7,5H4l6,4.1L16,5h0.4C16.7,5,17,5.3,17,5.6z"/>
</svg>
