<?xml version="1.0" encoding="utf-8"?>
<!-- Generator: Adobe Illustrator 21.1.0, SVG Export Plug-In . SVG Version: 6.00 Build 0)  -->
<svg version="1.1" id="Слой_3" xmlns="http://www.w3.org/2000/svg" xmlns:xlink="http://www.w3.org/1999/xlink" x="0px" y="0px"
	 viewBox="0 0 21 21" style="enable-background:new 0 0 21 21;" xml:space="preserve">
<style type="text/css">
	.st0{fill:#385C8E;}
</style>
<path class="st0" d="M7.7,10.9h1.4v5.9c0,0.1,0.1,0.2,0.2,0.2h2.4c0.1,0,0.2-0.1,0.2-0.2V11h1.6c0.1,0,0.2-0.1,0.2-0.2L14,8.6
	c0-0.1,0-0.1-0.1-0.2c0,0-0.1-0.1-0.2-0.1h-1.9V7c0-0.4,0.2-0.6,0.7-0.6c0.1,0,1.2,0,1.2,0c0.1,0,0.2-0.1,0.2-0.2v-2
	C14,4.1,13.9,4,13.8,4h-1.7c0,0,0,0-0.1,0c-0.3,0-1.3,0.1-2.1,0.8C9,5.6,9.1,6.6,9.2,6.8v1.6H7.7c-0.1,0-0.2,0.1-0.2,0.2v2.1
	C7.5,10.8,7.6,10.9,7.7,10.9z"/>
</svg>
