<?xml version="1.0" encoding="utf-8"?>
<!-- Generator: Adobe Illustrator 21.1.0, SVG Export Plug-In . SVG Version: 6.00 Build 0)  -->
<svg version="1.1" id="Слой_3" xmlns="http://www.w3.org/2000/svg" xmlns:xlink="http://www.w3.org/1999/xlink" x="0px" y="0px"
	 viewBox="0 0 21 21" style="enable-background:new 0 0 21 21;" xml:space="preserve">
<style type="text/css">
	.st0{fill:#F34A38;}
</style>
<g>
	<path class="st0" d="M8,11.5h2.6c-0.5,1.3-1.7,2.2-3.2,2.2c-1.8,0-3.3-1.4-3.3-3.2C4.1,8.6,5.6,7.1,7.5,7.1c0.9,0,1.7,0.3,2.2,0.9
		c0.1,0.1,0.4,0.1,0.5,0l1-0.9c0.2-0.1,0.2-0.4,0-0.5C10.3,5.6,9,5,7.6,5c-3-0.1-5.5,2.4-5.5,5.4c0,3,2.4,5.4,5.4,5.4
		c2.9,0,5.2-2.3,5.4-5.1c0,0,0-1.2,0-1.2H8c-0.2,0-0.4,0.2-0.4,0.4v1.3C7.7,11.4,7.8,11.5,8,11.5z"/>
	<path class="st0" d="M17.4,9.6V8.3c0-0.2-0.1-0.3-0.3-0.3H16c-0.2,0-0.3,0.1-0.3,0.3v1.3h-1.3c-0.2,0-0.3,0.1-0.3,0.3V11
		c0,0.2,0.1,0.3,0.3,0.3h1.3v1.3c0,0.2,0.1,0.3,0.3,0.3h1.1c0.2,0,0.3-0.1,0.3-0.3v-1.3h1.3c0.2,0,0.3-0.1,0.3-0.3V9.9
		c0-0.2-0.1-0.3-0.3-0.3H17.4L17.4,9.6z"/>
</g>
</svg>
