<svg xmlns="http://www.w3.org/2000/svg" width="25" height="25" viewBox="0 0 25 25">
<defs>
    <style>
      .cls-1 {
        fill: #fafafa;
        fill-rule: evenodd;
      }
    </style>
  </defs>
  <path id="menu_button" data-name="menu button" class="cls-1" d="M19.5,19h22a1.5,1.5,0,0,1,0,3h-22A1.5,1.5,0,0,1,19.5,19Zm0,7h16a1.5,1.5,0,0,1,0,3h-16A1.5,1.5,0,0,1,19.5,26Zm0,7h9A1.5,1.5,0,0,1,30,34.5h0A1.5,1.5,0,0,1,28.5,36h-9A1.5,1.5,0,0,1,18,34.5h0A1.5,1.5,0,0,1,19.5,33Z" transform="translate(-18 -15)"/>
</svg>
