<?xml version="1.0" encoding="utf-8"?>
<!-- Generator: Adobe Illustrator 21.1.0, SVG Export Plug-In . SVG Version: 6.00 Build 0)  -->
<svg version="1.1" id="Слой_1" xmlns="http://www.w3.org/2000/svg" xmlns:xlink="http://www.w3.org/1999/xlink" x="0px" y="0px"
	 viewBox="0 0 25 25" style="enable-background:new 0 0 25 25;" xml:space="preserve">
<style type="text/css">
	.st0{fill:#BB280F;}
</style>
<path class="st0" d="M23.2,11.1h-17L10.3,7c0.3-0.3,0.5-0.8,0.5-1.2c0-0.9-0.7-1.8-1.8-1.8C8.6,4,8.2,4.2,7.8,4.5l-7,7
	c-0.3,0.3-0.6,0.6-0.6,1.3c0,0.6,0.2,1,0.6,1.3l7.1,7.1c0.3,0.3,0.8,0.5,1.2,0.5c1.1,0,1.8-0.9,1.8-1.8c0-0.5-0.2-0.9-0.5-1.2
	l-4.1-4.1h17c1,0,1.8-0.8,1.8-1.8S24.2,11.1,23.2,11.1z"/>
</svg>
