<?xml version="1.0" encoding="utf-8"?>
<!-- Generator: Adobe Illustrator 21.1.0, SVG Export Plug-In . SVG Version: 6.00 Build 0)  -->
<svg version="1.1" id="Слой_3" xmlns="http://www.w3.org/2000/svg" xmlns:xlink="http://www.w3.org/1999/xlink" x="0px" y="0px"
	 viewBox="0 0 21 21" style="enable-background:new 0 0 21 21;" xml:space="preserve">
<style type="text/css">
	.st0{fill:#adadad;}
	.st1{opacity:0.5;fill:#adadad;stroke:#adadad;stroke-width:0.25;stroke-miterlimit:10;}
</style>
<g>
	<path class="st0" d="M10,5c2.8,0,5,2.2,5,5s-2.2,5-5,5s-5-2.2-5-5S7.2,5,10,5 M10,4c-3.3,0-6,2.7-6,6s2.7,6,6,6s6-2.7,6-6
		S13.3,4,10,4L10,4z"/>
</g>
<g>
	<circle class="st0" cx="10" cy="10" r="2"/>
</g>
<path class="st0" d="M12.5,8.5"/>
<path class="st1" d="M12.4,11.5c0.6-1.7,0-3,0-3"/>
<path class="st1" d="M7.6,8.5c-0.6,1.7,0,3,0,3"/>
<path class="st1" d="M13.5,12.5c1-2.9,0-5,0-5"/>
<path class="st1" d="M6.5,7.5c-1,2.9,0,5,0,5"/>
<path class="st1" d="M5.7,7.5c-1,2.9,0,5,0,5"/>
<path class="st1" d="M14.3,12.5c1-2.9,0-5,0-5"/>
</svg>
