<svg 
 xmlns="http://www.w3.org/2000/svg"
 xmlns:xlink="http://www.w3.org/1999/xlink"
 width="21px" height="21px">

    <path fill-rule="evenodd"  fill="rgb(0, 0, 0)" 
    d="M18.416,16.723 L17.584,17.277 L13.922,11.785 L10.354,15.354 L10.000,15.000 L9.553,15.224 L6.618,9.354 L1.743,6.429 L2.257,5.571 L7.257,8.571 L7.000,9.000 L7.447,8.776 L10.137,14.156 L13.646,10.646 L14.000,11.000 L14.416,10.723 L18.416,16.723 Z"/>

    <path fill-rule="evenodd"  fill="rgb(0, 0, 0)" fill-opacity="0.2"
    d="M21.000,18.000 L21.000,19.000 L18.000,19.000 L18.000,21.000 L17.000,21.000 L17.000,19.000 L13.000,19.000 L13.000,21.000 L12.000,21.000 L12.000,19.000 L8.000,19.000 L8.000,21.000 L7.000,21.000 L7.000,19.000 L3.000,19.000 L3.000,21.000 L2.000,21.000 L2.000,19.000 L0.000,19.000 L0.000,18.000 L2.000,18.000 L2.000,14.000 L0.000,14.000 L0.000,13.000 L2.000,13.000 L2.000,9.000 L0.000,9.000 L0.000,8.000 L2.000,8.000 L2.000,4.000 L0.000,4.000 L0.000,3.000 L2.000,3.000 L2.000,0.000 L3.000,0.000 L3.000,3.000 L7.000,3.000 L7.000,0.000 L8.000,0.000 L8.000,3.000 L12.000,3.000 L12.000,0.000 L13.000,0.000 L13.000,3.000 L17.000,3.000 L17.000,0.000 L18.000,0.000 L18.000,3.000 L21.000,3.000 L21.000,4.000 L18.000,4.000 L18.000,8.000 L21.000,8.000 L21.000,9.000 L18.000,9.000 L18.000,13.000 L21.000,13.000 L21.000,14.000 L18.000,14.000 L18.000,18.000 L21.000,18.000 ZM7.000,4.000 L3.000,4.000 L3.000,8.000 L7.000,8.000 L7.000,4.000 ZM7.000,9.000 L3.000,9.000 L3.000,13.000 L7.000,13.000 L7.000,9.000 ZM3.000,14.000 L3.000,18.000 L7.000,18.000 L7.000,14.000 L3.000,14.000 ZM12.000,4.000 L8.000,4.000 L8.000,8.000 L12.000,8.000 L12.000,4.000 ZM12.000,9.000 L8.000,9.000 L8.000,13.000 L12.000,13.000 L12.000,9.000 ZM8.000,14.000 L8.000,18.000 L12.000,18.000 L12.000,14.000 L8.000,14.000 ZM17.000,4.000 L13.000,4.000 L13.000,8.000 L17.000,8.000 L17.000,4.000 ZM17.000,9.000 L13.000,9.000 L13.000,13.000 L17.000,13.000 L17.000,9.000 ZM17.000,14.000 L13.000,14.000 L13.000,18.000 L17.000,18.000 L17.000,14.000 Z"/>
</svg>
