<?xml version="1.0" encoding="utf-8"?>
<!-- Generator: Adobe Illustrator 21.1.0, SVG Export Plug-In . SVG Version: 6.00 Build 0)  -->
<svg version="1.1" id="Слой_3" xmlns="http://www.w3.org/2000/svg" xmlns:xlink="http://www.w3.org/1999/xlink" x="0px" y="0px"
	 viewBox="0 0 21 21" style="enable-background:new 0 0 21 21;" xml:space="preserve">
<style type="text/css">
	.st0{fill-rule:evenodd;clip-rule:evenodd;fill:#BB280F;}
</style>
<path class="st0" d="M17.6,15.8c-0.4,0.6-1.1,0.7-1.6,0.3l-4.9-3.5c-0.3-0.2-0.5-0.6-0.5-1c-0.6,0.7-1.5,1.2-2.4,1.3
	c-1.1,0.2-2.3,0-3.2-0.7C4,11.5,3.4,10.5,3.2,9.3C3,8.2,3.2,7,3.9,6c1.4-2,4-2.5,6-1.1c1.8,1.3,2.3,3.7,1.4,5.6
	c0.4-0.2,0.8-0.1,1.1,0.1l4.9,3.5C17.9,14.5,18,15.3,17.6,15.8z M10.4,8c-0.1-0.8-0.6-1.5-1.2-2C7.8,5,5.9,5.4,5,6.8
	C4,8.2,4.4,10.1,5.7,11.1c1.4,1,3.2,0.6,4.2-0.8C10.4,9.6,10.5,8.8,10.4,8z"/>
</svg>
