<?xml version="1.0" encoding="utf-8"?>
<!-- Generator: Adobe Illustrator 21.1.0, SVG Export Plug-In . SVG Version: 6.00 Build 0)  -->
<svg version="1.1" id="Слой_3" xmlns="http://www.w3.org/2000/svg" xmlns:xlink="http://www.w3.org/1999/xlink" x="0px" y="0px"
	 viewBox="0 0 21 21" style="enable-background:new 0 0 21 21;" xml:space="preserve">
<g>
	<path id="Steam" d="M19.3,7.4c0,1-0.9,1.9-1.9,1.9c-1.1,0-1.9-0.8-1.9-1.9s0.9-1.9,1.9-1.9C18.4,5.5,19.3,6.4,19.3,7.4z M18.5,10.6
		l-2.4,1.9c0,0.2,0,0.3,0,0.5c0,1.7-1.4,3-3.1,3c-1.5,0-2.7-1-3-2.3l-5.8-1.9c-0.5,0.3-1,0.5-1.7,0.5c-1.5,0-2.7-1.2-2.7-2.6
		C-0.1,8.2,1.1,7,2.6,7C3.9,7,5,7.9,5.3,9.1l5.6,1.8c0.5-0.5,1.3-0.9,2.1-0.9l0.8-2.5c0,0,0-0.1,0-0.1c0-1.9,1.6-3.4,3.5-3.4
		c1.9,0,3.5,1.5,3.5,3.4C20.9,8.9,19.9,10.1,18.5,10.6z M4.3,8.7c-0.3-0.6-1-1-1.7-1c-1.1,0-1.9,0.8-1.9,1.9s0.9,1.9,1.9,1.9
		c0.2,0,0.4,0,0.6-0.1l-0.9-0.3c-0.7-0.4-1-1.3-0.6-2c0.4-0.7,1.3-1,2-0.6L4.3,8.7z M14.6,7.4c0,1.5,1.2,2.6,2.7,2.6
		s2.7-1.2,2.7-2.6c0-1.5-1.2-2.6-2.7-2.6C15.9,4.8,14.6,5.9,14.6,7.4z M14.7,13.3c0-1.1-0.9-2-2.1-2c-0.2,0-0.3,0-0.5,0.1l1.2,0.4
		c0.7,0.4,1,1.3,0.6,2c-0.4,0.7-1.3,1-2,0.6l-1.2-0.4c0.3,0.8,1,1.4,2,1.4C13.8,15.3,14.7,14.4,14.7,13.3z"/>
</g>
</svg>
