<?xml version="1.0" encoding="utf-8"?>
<!-- Generator: Adobe Illustrator 21.1.0, SVG Export Plug-In . SVG Version: 6.00 Build 0)  -->
<svg version="1.1" id="Слой_3" xmlns="http://www.w3.org/2000/svg" xmlns:xlink="http://www.w3.org/1999/xlink" x="0px" y="0px"
	 viewBox="0 0 21 21" style="enable-background:new 0 0 21 21;" xml:space="preserve">
<style type="text/css">
	.st0{fill:#76A9EA;}
</style>
<path class="st0" d="M17.2,5.9c-0.3,0.1-0.7,0.3-1,0.3c0.4-0.4,0.7-0.8,0.8-1.3l0,0c0-0.1-0.1-0.3-0.2-0.2l0,0
	c-0.5,0.3-1,0.5-1.5,0.6c0,0-0.1,0-0.1,0c-0.1,0-0.2,0-0.3-0.1c-0.6-0.5-1.3-0.8-2.1-0.8c-0.3,0-0.7,0.1-1,0.2
	c-1,0.3-1.8,1.2-2.1,2.2C9.7,7.2,9.7,7.6,9.7,8c0,0,0,0.1,0,0.1c0,0-0.1,0-0.1,0c0,0,0,0,0,0c-2.2-0.2-4.3-1.3-5.7-3l0,0
	C3.8,5,3.7,5,3.6,5.1l0,0c-0.3,0.5-0.4,1-0.4,1.6c0,0.9,0.3,1.7,0.9,2.2C3.9,8.9,3.7,8.8,3.4,8.7l0,0c-0.1-0.1-0.2,0-0.2,0.1l0,0
	c0,1.3,0.7,2.4,1.8,2.9c0,0,0,0-0.1,0c-0.2,0-0.4,0-0.5-0.1l0,0c-0.1,0-0.2,0.1-0.2,0.2l0,0c0.4,1.1,1.3,2,2.5,2.1
	c-1,0.6-2.1,1-3.3,1l-0.4,0c-0.1,0-0.2,0.1-0.2,0.2c0,0.1,0,0.2,0.1,0.3c1.3,0.8,2.8,1.2,4.3,1.2c1.3,0,2.6-0.3,3.7-0.8
	c1-0.5,1.9-1.2,2.7-2c0.7-0.8,1.3-1.7,1.7-2.8c0.4-1,0.6-2,0.6-3v0c0-0.2,0.1-0.3,0.2-0.4c0.5-0.4,0.9-0.9,1.3-1.4l0,0
	C17.5,6,17.4,5.8,17.2,5.9L17.2,5.9z"/>
</svg>
