<?xml version="1.0" encoding="utf-8"?>
<!-- Generator: Adobe Illustrator 21.1.0, SVG Export Plug-In . SVG Version: 6.00 Build 0)  -->
<svg version="1.1" id="Слой_3" xmlns="http://www.w3.org/2000/svg" xmlns:xlink="http://www.w3.org/1999/xlink" x="0px" y="0px"
	 viewBox="0 0 21 21" style="enable-background:new 0 0 21 21;" xml:space="preserve">
<style type="text/css">
	.st0{fill:#436EAB;}
</style>
<path class="st0" d="M16.6,11.3c0.6,0.6,1.2,1.1,1.7,1.7c0.2,0.3,0.4,0.5,0.6,0.9c0.2,0.4,0,0.9-0.4,1l-2.5,0
	c-0.6,0.1-1.1-0.2-1.6-0.6c-0.3-0.3-0.7-0.7-1-1.1c-0.1-0.1-0.3-0.3-0.4-0.4c-0.3-0.2-0.6-0.2-0.8,0.2C12,13.2,12,13.6,11.9,14
	c0,0.6-0.2,0.7-0.8,0.8c-1.3,0.1-2.4-0.1-3.5-0.8c-1-0.6-1.7-1.3-2.4-2.2C3.9,10.1,3,8.2,2.1,6.2C1.9,5.8,2,5.5,2.5,5.5
	c0.8,0,1.6,0,2.4,0c0.3,0,0.5,0.2,0.7,0.5c0.4,1.1,1,2.1,1.6,3c0.2,0.3,0.4,0.5,0.6,0.7C8.2,10,8.4,9.9,8.5,9.6
	c0.1-0.2,0.1-0.4,0.1-0.6c0.1-0.7,0.1-1.5,0-2.2C8.6,6.2,8.3,5.9,7.8,5.8c-0.2,0-0.2-0.1-0.1-0.3c0.2-0.2,0.4-0.4,0.8-0.4h2.8
	c0.4,0.1,0.5,0.3,0.6,0.7l0,3.1c0,0.2,0.1,0.7,0.4,0.8c0.2,0.1,0.4-0.1,0.6-0.3C13.5,8.8,14,8,14.4,7.1c0.2-0.4,0.4-0.8,0.5-1.2
	c0.1-0.3,0.3-0.4,0.6-0.4l2.7,0c0.1,0,0.2,0,0.2,0c0.5,0.1,0.6,0.3,0.4,0.7c-0.2,0.7-0.7,1.3-1.1,1.9c-0.4,0.6-0.9,1.2-1.4,1.8
	C16.1,10.5,16.1,10.8,16.6,11.3L16.6,11.3z"/>
</svg>
