<svg xmlns="http://www.w3.org/2000/svg" xmlns:xlink="http://www.w3.org/1999/xlink">

    <symbol id="cpu" viewBox="0 0 21 21">
        <title>CPU</title>
        <path fill="#0b000c" fill-rule="evenodd" d="M883,832h7a2,2,0,0,1,2,2v7a2,2,0,0,1-2,2h-7a2,2,0,0,1-2-2v-7
            A2,2,0,0,1,883,832Zm2,2h3a2,2,0,0,1,2,2v3a2,2,0,0,1-2,2h-3a2,2,0,0,1-2-2v-3A2,2,0,0,1,885,834Zm1,1h1
            a2,2,0,0,1,2,2v1a2,2,0,0,1-2,2h-1a2,2,0,0,1-2-2v-1A2,2,0,0,1,886,835Zm-1.5-6a0.5,0.5,0,0,1,.5.5v1
            a0.5,0.5,0,0,1-1,0v-1A0.5,0.5,0,0,1,884.5,829Zm2,0a0.5,0.5,0,0,1,.5.5v1a0.5,0.5,0,0,1-1,0v-1
            A0.5,0.5,0,0,1,886.5,829Zm2,0a0.5,0.5,0,0,1,.5.5v1a0.5,0.5,0,0,1-1,0v-1A0.5,0.5,0,0,1,888.5,829Z
            m-4,15a0.5,0.5,0,0,1,.5.5v1a0.5,0.5,0,0,1-1,0v-1A0.5,0.5,0,0,1,884.5,844Zm2,0a0.5,0.5,0,0,1,.5.5v1
            a0.5,0.5,0,0,1-1,0v-1A0.5,0.5,0,0,1,886.5,844Zm2,0a0.5,0.5,0,0,1,.5.5v1a0.5,0.5,0,0,1-1,0v-1
            A0.5,0.5,0,0,1,888.5,844Zm5-9h1a0.5,0.5,0,0,1,0,1h-1A0.5,0.5,0,0,1,893.5,835Zm0,2h1a0.5,0.5,0,0,1,0,1
            h-1A0.5,0.5,0,0,1,893.5,837Zm0,2h1a0.5,0.5,0,0,1,0,1h-1A0.5,0.5,0,0,1,893.5,839Zm-15-4h1a0.5,0.5,0,0,1,0,1
            h-1A0.5,0.5,0,0,1,878.5,835Zm0,2h1a0.5,0.5,0,0,1,0,1h-1A0.5,0.5,0,0,1,878.5,837Zm0,2h1a0.5,0.5,0,0,1,0,1
            h-1A0.5,0.5,0,0,1,878.5,839Z" transform="translate(-876 -827)"/>
    </symbol>
    <view id="cpu-view" viewBox="0 0 21 21" />
    <use xlink:href="#cpu" width="21" height="21" x="0" y="0" />

    <symbol id="directx" viewBox="0 0 21 21">
        <title>DirectX</title>
        <path fill-rule="evenodd" clip-rule="evenodd" d="M13.8,13l3.1-4.9h-2.3l-1.9,3.3l-0.6-1c0,0,0,0,0,0
            c0.2-0.6,0.3-1.3,0.3-2.2c0-0.9-0.1-1.7-0.3-2.4c-0.2-0.6-0.5-1.2-0.9-1.6c-0.4-0.4-0.9-0.8-1.5-0.9
            C9.2,3.1,8.5,3,7.7,3H4.1v10.1h3.8c0.7,0,1.3-0.1,1.8-0.2c0.6-0.2,1-0.4,1.3-0.8l0.5,0.7L8,18.2h2.4l2.2-3.5
            l2.2,3.5h2.4L13.8,13z M9.6,10.9c-0.2,0.2-0.5,0.3-0.8,0.4c-0.2,0.1-0.7,0.1-1.2,0.1H6.1V4.8H7
            c0.8,0,1.4,0,1.6,0.1C9,4.9,9.3,5.1,9.5,5.3s0.4,0.6,0.6,1c0.1,0.4,0.2,1,0.2,1.8h-2l1.5,2.4
			C9.8,10.7,9.7,10.8,9.6,10.9z"/>
    </symbol>
    <view id="directx-view" viewBox="0 21 21 21" />
    <use xlink:href="#directx" width="21" height="21" x="0" y="21" />

    <symbol id="gpu" viewBox="0 0 21 21">
        <title>GPU</title>
        <path fill="#0b000c" fill-rule="evenodd" d="M883,914h7a2,2,0,0,1,2,2v7a2,2,0,0,1-2,2h-7a2,2,0,0,1-2-2v-7A2,2,0,0,1,883,914Zm5.3,6.1v0.664a3.815,3.815,0,0,1-.76.361,2.3,2.3,0,0,1-.7.105,1.512,1.512,0,0,1-1.2-.49,2.471,2.471,0,0,1-.431-1.636,2.4,2.4,0,0,1,.426-1.575,1.425,1.425,0,0,1,1.142-.5,1.374,1.374,0,0,1,.791.211,1.135,1.135,0,0,1,.44.611l2.1-.375a2.93,2.93,0,0,0-.574-1.128,2.264,2.264,0,0,0-.963-0.656,5.387,5.387,0,0,0-1.748-.212,4.544,4.544,0,0,0-1.928.341,3.077,3.077,0,0,0-1.4,1.3,4.048,4.048,0,0,0-.476,2.007,4.2,4.2,0,0,0,.435,1.944,2.929,2.929,0,0,0,1.226,1.274,4.281,4.281,0,0,0,2.047.428,5.8,5.8,0,0,0,1.763-.238,6.878,6.878,0,0,0,1.709-.9v-3.006H886.84V920.1H888.3Zm-3.8-9.1a0.5,0.5,0,0,1,.5.5v1a0.5,0.5,0,0,1-1,0v-1A0.5,0.5,0,0,1,884.5,911Zm2,0a0.5,0.5,0,0,1,.5.5v1a0.5,0.5,0,0,1-1,0v-1A0.5,0.5,0,0,1,886.5,911Zm2,0a0.5,0.5,0,0,1,.5.5v1a0.5,0.5,0,0,1-1,0v-1A0.5,0.5,0,0,1,888.5,911Zm-4,15a0.5,0.5,0,0,1,.5.5v1a0.5,0.5,0,0,1-1,0v-1A0.5,0.5,0,0,1,884.5,926Zm2,0a0.5,0.5,0,0,1,.5.5v1a0.5,0.5,0,0,1-1,0v-1A0.5,0.5,0,0,1,886.5,926Zm2,0a0.5,0.5,0,0,1,.5.5v1a0.5,0.5,0,0,1-1,0v-1A0.5,0.5,0,0,1,888.5,926Zm5-9h1a0.5,0.5,0,0,1,0,1h-1A0.5,0.5,0,0,1,893.5,917Zm0,2h1a0.5,0.5,0,0,1,0,1h-1A0.5,0.5,0,0,1,893.5,919Zm0,2h1a0.5,0.5,0,0,1,0,1h-1A0.5,0.5,0,0,1,893.5,921Zm-15-4h1a0.5,0.5,0,0,1,0,1h-1A0.5,0.5,0,0,1,878.5,917Zm0,2h1a0.5,0.5,0,0,1,0,1h-1A0.5,0.5,0,0,1,878.5,919Zm0,2h1a0.5,0.5,0,0,1,0,1h-1A0.5,0.5,0,0,1,878.5,921Z" transform="translate(-876 -909)"/>
    </symbol>
    <view id="gpu-view" viewBox="0 42 21 21" />
    <use xlink:href="#gpu" width="21" height="21" x="0" y="42" />

    <symbol id="hdd" viewBox="0 0 21 21">
        <title>HDD</title>
        <path fill="#0b000c" fill-rule="evenodd" d="M819,1431h7a2,2,0,0,1,2,2v9a2,2,0,0,1-2,2h-7a2,2,0,0,1-2-2v-9A2,2,0,0,1,819,1431Zm3.5,1a4.5,4.5,0,1,1-4.5,4.5A4.5,4.5,0,0,1,822.5,1432Zm0,3a1.5,1.5,0,1,1-1.5,1.5A1.5,1.5,0,0,1,822.5,1435Zm2,7a0.5,0.5,0,1,1-.5.5A0.5,0.5,0,0,1,824.5,1442Zm-4,0a0.5,0.5,0,1,1-.5.5A0.5,0.5,0,0,1,820.5,1442Zm-1.263-.29-0.474-1.42,3-1,0.474,1.42Z" transform="translate(-812 -1427)"/>
    </symbol>
    <view id="hdd-view" viewBox="0 63 21 21" />
    <use xlink:href="#hdd" width="21" height="21" x="0" y="63" />

    <symbol id="os" viewBox="0 0 21 21">
        <title>OS</title>
        <path d="M4,10.1l0-4.2l5.2-0.7v4.9H4z M10.1,5L17,4v6.1h-6.9V5z M17,10.9l0,6.1l-6.9-1v-5.1H17z M9.2,15.9L4,15.2l0-4.3h5.2V15.9z"/>
    </symbol>
    <view id="os-view" viewBox="0 84 21 21" />
    <use xlink:href="#os" width="21" height="21" x="0" y="84" />

    <symbol id="other" viewBox="0 0 21 21">
        <title>Other</title>
        <path fill-rule="evenodd" d="M816,1536a2,2,0,1,1-2,2A2,2,0,0,1,816,1536Zm5,8a2,2,0,1,1-2,2A2,2,0,0,1,821,1544Zm5-8a2,2,0,1,1-2,2A2,2,0,0,1,826,1536Z" transform="translate(-810.5 -1531.5)"/>
    </symbol>
    <view id="other-view" viewBox="0 105 21 21" />
    <use xlink:href="#other" width="21" height="21" x="0" y="105" />

    <symbol id="ram" viewBox="0 0 21 21">
        <title>RAM</title>
        <path fill="#0b000c" fill-rule="evenodd" clip-rule="evenodd" d="M18.2,7.1H3c-1.1,0-2,0.9-2,2v3c0,1.1,0.9,2,2,2h1v0.5c0,0.3,0.2,0.5,0.5,0.5c0.3,0,0.5-0.2,0.5-0.5v-0.5h1
			v0.5c0,0.3,0.2,0.5,0.5,0.5s0.5-0.2,0.5-0.5v-0.5h1v0.5c0,0.3,0.2,0.5,0.5,0.5c0.3,0,0.5-0.2,0.5-0.5v-0.5h1v0.5
			c0,0.3,0.2,0.5,0.5,0.5s0.5-0.2,0.5-0.5v-0.5h1v0.5c0,0.3,0.2,0.5,0.5,0.5c0.3,0,0.5-0.2,0.5-0.5v-0.5h1v0.5
			c0,0.3,0.2,0.5,0.5,0.5s0.5-0.2,0.5-0.5v-0.5h1v0.5c0,0.3,0.2,0.5,0.5,0.5c0.3,0,0.5-0.2,0.5-0.5v-0.5h1c1.1,0,2-0.9,2-2v-3
			C20.2,8,19.3,7.1,18.2,7.1z M7.1,12.1c0,0.6-0.5,1-1,1h-1c-0.6,0-1-0.5-1-1v-3c0-0.6,0.5-1,1-1h1c0.6,0,1,0.5,1,1V12.1z
			 M12.1,12.1c0,0.6-0.5,1-1,1h-1c-0.6,0-1-0.5-1-1v-3c0-0.6,0.5-1,1-1h1c0.6,0,1,0.5,1,1V12.1z M17.2,12.1c0,0.6-0.5,1-1,1h-1
			c-0.6,0-1-0.5-1-1v-3c0-0.6,0.5-1,1-1h1c0.6,0,1,0.5,1,1V12.1z"/>
    </symbol>
    <view id="ram-view" viewBox="0 126 21 21" />
    <use xlink:href="#ram" width="21" height="21" x="0" y="126" />

    <symbol id="sc" viewBox="0 0 21 21">
        <title>SC</title>
        <path fill="#0b000c" fill-rule="evenodd" clip-rule="evenodd" d="M3.5,10.1h-1c-0.3,0-0.5,0.2-0.5,0.5s0.2,0.5,0.5,0.5h1c0.3,0,0.5-0.2,0.5-0.5
            S3.8,10.1,3.5,10.1z M8.6,4c0.3,0,0.5-0.2,0.5-0.5v-1C9.1,2.3,8.9,2,8.6,2C8.3,2,8.1,2.3,8.1,2.5v1C8.1,3.8,8.3,4,8.6,4z M3.5,12.1
            h-1c-0.3,0-0.5,0.2-0.5,0.5c0,0.3,0.2,0.5,0.5,0.5h1c0.3,0,0.5-0.2,0.5-0.5C4,12.4,3.8,12.1,3.5,12.1z M10.6,4
            c0.3,0,0.5-0.2,0.5-0.5v-1c0-0.3-0.2-0.5-0.5-0.5s-0.5,0.2-0.5,0.5v1C10.1,3.8,10.4,4,10.6,4z M12.7,4c0.3,0,0.5-0.2,0.5-0.5v-1
            c0-0.3-0.2-0.5-0.5-0.5c-0.3,0-0.5,0.2-0.5,0.5v1C12.1,3.8,12.4,4,12.7,4z M17.7,9.1h1c0.3,0,0.5-0.2,0.5-0.5
            c0-0.3-0.2-0.5-0.5-0.5h-1c-0.3,0-0.5,0.2-0.5,0.5C17.2,8.9,17.4,9.1,17.7,9.1z M14.2,5.1H7.1c-1.1,0-2,0.9-2,2v7.1
            c0,1.1,0.9,2,2,2h7.1c1.1,0,2-0.9,2-2V7.1C16.2,6,15.3,5.1,14.2,5.1z M13.6,8l0.5,0.8l-2.9,1.9L11,10.4l-0.4,2.4
            c0.2,0.3,0.4,0.6,0.4,1c0,0.8-0.7,1.5-1.5,1.5c-0.8,0-1.5-0.7-1.5-1.5c0-0.8,0.7-1.5,1.5-1.5c0.1,0,0.1,0,0.1,0l0.8-4.9l0.9,0.2
            l2.2-1.4l0.5,0.8l-2.9,1.9l0,0l-0.1,0.9L13.6,8z M18.7,12.1h-1c-0.3,0-0.5,0.2-0.5,0.5c0,0.3,0.2,0.5,0.5,0.5h1
            c0.3,0,0.5-0.2,0.5-0.5C19.2,12.4,19,12.1,18.7,12.1z M12.7,17.2c-0.3,0-0.5,0.2-0.5,0.5v1c0,0.3,0.2,0.5,0.5,0.5
            c0.3,0,0.5-0.2,0.5-0.5v-1C13.2,17.4,12.9,17.2,12.7,17.2z M3.5,8.1h-1C2.3,8.1,2,8.3,2,8.6c0,0.3,0.2,0.5,0.5,0.5h1
            C3.8,9.1,4,8.9,4,8.6C4,8.3,3.8,8.1,3.5,8.1z M18.7,10.1h-1c-0.3,0-0.5,0.2-0.5,0.5s0.2,0.5,0.5,0.5h1c0.3,0,0.5-0.2,0.5-0.5
            S19,10.1,18.7,10.1z M10.6,17.2c-0.3,0-0.5,0.2-0.5,0.5v1c0,0.3,0.2,0.5,0.5,0.5s0.5-0.2,0.5-0.5v-1C11.1,17.4,10.9,17.2,10.6,17.2
            z M8.6,17.2c-0.3,0-0.5,0.2-0.5,0.5v1c0,0.3,0.2,0.5,0.5,0.5c0.3,0,0.5-0.2,0.5-0.5v-1C9.1,17.4,8.9,17.2,8.6,17.2z"/>
    </symbol>
    <view id="sc-view" viewBox="0 147 21 21" />
    <use xlink:href="#sc" width="21" height="21" x="0" y="147" />

    <symbol id="vram" viewBox="0 0 21 21">
        <title>VRAM</title>
        <path fill-rule="evenodd" d="M869,964h-1v0.5a0.5,0.5,0,0,1-1,0V964h-1v0.5a0.5,0.5,0,0,1-1,0V964h-1v0.5a0.5,0.5,0,0,1-1,0V964h-1v0.5a0.5,0.5,0,0,1-1,0V964h-1v0.5a0.5,0.5,0,0,1-1,0V964h-1v0.5a0.5,0.5,0,0,1-1,0V964h-1v0.5a0.5,0.5,0,0,1-1,0V964h-1a2,2,0,0,1-2-2v-3a2,2,0,0,1,2-2h15a2,2,0,0,1,2,2v3A2,2,0,0,1,869,964Zm-4.94-4.487h-2.569v1.119H862.6v0.507a2.922,2.922,0,0,1-.58.275,1.736,1.736,0,0,1-.532.081,1.155,1.155,0,0,1-.916-0.375,1.884,1.884,0,0,1-.328-1.248,1.823,1.823,0,0,1,.325-1.2,1.085,1.085,0,0,1,.871-0.38,1.054,1.054,0,0,1,.6.161,0.869,0.869,0,0,1,.336.466l1.6-.286a2.244,2.244,0,0,0-.439-0.861,1.74,1.74,0,0,0-.734-0.5,4.158,4.158,0,0,0-1.334-.161,3.46,3.46,0,0,0-1.472.261,2.352,2.352,0,0,0-1.064.988,3.1,3.1,0,0,0-.364,1.533,3.185,3.185,0,0,0,.333,1.482,2.234,2.234,0,0,0,.935.973,3.271,3.271,0,0,0,1.562.327,4.429,4.429,0,0,0,1.345-.182,5.268,5.268,0,0,0,1.3-.684v-2.294Z" transform="translate(-851 -950.5)"/>
    </symbol>
    <view id="vram-view" viewBox="0 168 21 21" />
    <use xlink:href="#vram" width="21" height="21" x="0" y="168" />

    <symbol id="yes" viewBox="0 0 21 21">
        <title>Yes</title>
        <path fill="#0d8e09" fill-rule="evenodd" clip-rule="evenodd" d="M10.6,3C6.4,3,3,6.4,3,10.6s3.4,7.6,7.6,7.6s7.6-3.4,7.6-7.6S14.8,3,10.6,3z M10.8,13.6l-0.6-0.4l-0.5,0.5
			l-3-3l1.1-1.1L10,12l3.5-5.3l1.3,0.8L10.8,13.6z"/>
    </symbol>
    <view id="yes-view" viewBox="0 189 21 21" />
    <use xlink:href="#yes" width="21" height="21" x="0" y="189" />

    <symbol id="yes-no" viewBox="0 0 21 21">
        <title>Yes no maybe</title>
        <path fill="#f1b81d" fill-rule="evenodd" clip-rule="evenodd" d="M10.6,3C6.4,3,3,6.4,3,10.6s3.4,7.6,7.6,7.6s7.6-3.4,7.6-7.6S14.8,3,10.6,3z M10.8,13.6
		    l-0.6-0.4l-0.5,0.5l-3-3l1.1-1.1L10,12l3.5-5.3l1.3,0.8L10.8,13.6z"/>
    </symbol>
    <view id="yes-no-view" viewBox="0 210 21 21" />
    <use xlink:href="#yes-no" width="21" height="21" x="0" y="210" />

    <symbol id="no" viewBox="0 0 21 21">
        <title>NO</title>
        <path fill="#BB280F" fill-rule="evenodd" clip-rule="evenodd" d="M10.6,3C6.4,3,3,6.4,3,10.6s3.4,7.6,7.6,7.6s7.6-3.4,7.6-7.6S14.8,3,10.6,3z M13.7,12.6l-1.1,1.1l-2-2l-2,2
			l-1.1-1.1l2-2l-2-2l1.1-1.1l2,2l2-2l1.1,1.1l-2,2L13.7,12.6z"/>
    </symbol>
    <view id="no-view" viewBox="0 231 21 21" />
    <use xlink:href="#no" width="21" height="21" x="0" y="231" />

    <symbol id="info" viewBox="0 0 21 21">
        <title>Information</title>
        <path fill="#A6A6A6" d="M10.3,13.6l-0.6-0.1c0.1-0.7,0.2-1.3,0.5-1.8s0.7-1.1,1.4-1.7l0,0c0.7-0.6,1-1.2,1-1.9c0-0.4-0.1-0.8-0.4-1
			c-0.3-0.3-0.6-0.4-1.1-0.4c-0.3,0-0.6,0.1-0.8,0.2C10,6.9,9.9,7.1,9.9,7.2c0,0,0.1,0.1,0.3,0.3c0.2,0.2,0.3,0.4,0.3,0.7
			c0,0.2-0.1,0.4-0.2,0.6S9.8,9,9.6,9C9.3,9,9,8.9,8.9,8.7S8.6,8.3,8.6,7.9c0-0.6,0.2-1.1,0.7-1.5c0.5-0.4,1.1-0.6,1.8-0.6
			c0.8,0,1.5,0.2,2,0.7c0.5,0.5,0.8,1,0.8,1.8c0,0.5-0.1,0.9-0.3,1.3c-0.2,0.4-0.6,0.7-1.2,1.1c-0.1,0-0.1,0.1-0.3,0.2
			c-0.5,0.3-0.8,0.6-1,0.8c-0.2,0.2-0.3,0.5-0.5,0.8C10.5,12.8,10.4,13.2,10.3,13.6z M8.7,15.3c0-0.3,0.1-0.5,0.3-0.7
			s0.4-0.3,0.7-0.3c0.3,0,0.5,0.1,0.7,0.3s0.3,0.4,0.3,0.7c0,0.3-0.1,0.5-0.3,0.7c-0.2,0.2-0.4,0.3-0.7,0.3S9.1,16.1,9,15.9
			C8.8,15.8,8.7,15.5,8.7,15.3z"/>
        <path fill="#A6A6A6" d="M10.5,4c3.6,0,6.5,2.9,6.5,6.5S14.1,17,10.5,17S4,14.1,4,10.5S6.9,4,10.5,4 M10.5,3C6.4,3,3,6.4,3,10.5
			S6.4,18,10.5,18s7.5-3.4,7.5-7.5S14.6,3,10.5,3L10.5,3z"/>
    </symbol>
    <view id="info-view" viewBox="0 252 21 21" />
    <use xlink:href="#info" width="21" height="21" x="0" y="252" />
</svg>