<?xml version="1.0" encoding="utf-8"?>
<!-- Generator: Adobe Illustrator 21.1.0, SVG Export Plug-In . SVG Version: 6.00 Build 0)  -->
<svg version="1.1" id="icon" xmlns="http://www.w3.org/2000/svg" xmlns:xlink="http://www.w3.org/1999/xlink" x="0px" y="0px"
	 viewBox="0 0 21 21" style="enable-background:new 0 0 21 21;" xml:space="preserve">
<style type="text/css">
	.st0{opacity:0.5;}
	.st1{fill:#FFFFFF;}
</style>
<g id="base">
	<path d="M19,10.4L11.6,3c-0.2,0-0.4,0-0.6,0c-4.4,0-8,3.6-8,8s3.6,8,8,8s8-3.6,8-8C19,10.8,19,10.6,19,10.4z M12.3,6.9l-0.4,5.7
		h-1.8L9.7,6.9H12.3z M11,15.1c-0.9,0-1.5-0.3-1.5-0.7c0-0.4,0.7-0.7,1.5-0.7c0.9,0,1.5,0.3,1.5,0.7C12.5,14.8,11.9,15.1,11,15.1z"
		/>
</g>
<g class="st0">
	<path class="st1" d="M11.7,3.2c0.3,3.9,3.4,7,7.3,7.3L11.7,3.2z"/>
</g>
</svg>
