<?xml version="1.0" encoding="utf-8"?>
<!-- Generator: Adobe Illustrator 21.1.0, SVG Export Plug-In . SVG Version: 6.00 Build 0)  -->
<svg version="1.1" xmlns="http://www.w3.org/2000/svg" xmlns:xlink="http://www.w3.org/1999/xlink" x="0px" y="0px"
	 viewBox="0 0 21 21" style="enable-background:new 0 0 21 21;" xml:space="preserve">
<style type="text/css">
	.st0{fill:none;stroke:#000000;stroke-miterlimit:10;}
	.st1{fill:none;stroke:#000000;stroke-miterlimit:10;stroke-dasharray:1.6329,1.6329;}
	.st2{fill:none;stroke:#000000;stroke-miterlimit:10;stroke-dasharray:2.1772,1.6329,1.6329,1.6329;}
	.st3{stroke:#000000;stroke-width:0.75;stroke-miterlimit:10;}
</style>
<g id="Слой_4">
	<g>
		<g>
			<g>
				<path class="st0" d="M9.5,7.5c0.3-0.6,0.8-1.1,1.3-1.5"/>
				<path class="st1" d="M12.3,5.5c0.1,0,0.1,0,0.2,0c1,0,1.6,0.5,1.8,1.1"/>
				<path class="st2" d="M14.5,7.4C14.5,7.4,14.5,7.5,14.5,7.4c0,2.1-1,1.1-2,3.1c-0.4,0.8-0.7,1.4-0.6,2.3"/>
				<path class="st0" d="M12,13.6c0.1,0.5,0.3,1.1,0.5,1.9"/>
			</g>
		</g>
	</g>
</g>
<g id="Слой_5">
	<line class="st3" x1="6.5" y1="9.5" x2="10.5" y2="13.5"/>
	<line class="st3" x1="6.5" y1="13.5" x2="10.5" y2="9.5"/>
</g>
</svg>
