<?xml version="1.0" encoding="utf-8"?>
<!-- Generator: Adobe Illustrator 21.1.0, SVG Export Plug-In . SVG Version: 6.00 Build 0)  -->
<svg version="1.1" id="Слой_3" xmlns="http://www.w3.org/2000/svg" xmlns:xlink="http://www.w3.org/1999/xlink" x="0px" y="0px"
	 viewBox="0 0 21 21" style="enable-background:new 0 0 21 21;" xml:space="preserve">
<g transform="translate(0.000000,550.000000) scale(0.100000,-0.100000)">
	<path d="M63.1,5469c-14.8-2.6-26.7-13.6-30.5-28c-1.4-5.2-1.4-8.3-1.3-48.7c0.1-37.1,0.1-38,0.7-40.8c3.4-15.4,14.4-26.4,30-30.1
		c2-0.5,4.6-0.6,21.3-0.6c17.3-0.1,19-0.1,19.5,0.4c0.5,0.5,0.5,6.4,0.5,73.8c0,50-0.1,73.5-0.3,73.9c-0.3,0.6-0.8,0.6-18.9,0.6
		C69.4,5469.4,65,5469.4,63.1,5469z M91,5395.1v-62.4l-12.5,0.2c-11.6,0.1-12.8,0.2-15.1,0.8c-9.9,2.6-17.3,10.2-19.3,20.2
		c-0.7,3.1-0.7,79.8,0,82.8c1.8,8.7,7.9,15.8,16,19.1c4.1,1.6,5.9,1.8,19.1,1.8l11.9,0V5395.1z"/>
	<path d="M65.7,5438.7c-1.9-0.4-4.9-1.8-6.5-3.2c-3.2-2.8-4.8-6.8-4.6-11.5c0.1-2.4,0.3-3.1,1.3-5.1c1.4-3,3.6-5.2,6.6-6.7
		c2.1-1,2.6-1.1,5.3-1.2c2.4-0.1,3.3,0,4.9,0.6c6.7,2.2,10.7,8.8,9.6,15.4C81,5434.9,73.5,5440.2,65.7,5438.7z"/>
	<path d="M118.3,5469.3c-0.1-0.1-0.2-33.5-0.2-74.2c0-67.2,0-74,0.5-74.2c0.8-0.3,24.7-0.2,27.7,0.1c12.5,1.4,23.5,9,29.5,20.3
		c0.8,1.4,1.8,3.9,2.3,5.4c1.9,5.8,1.9,4.3,1.9,48.5c0,35.3-0.1,40.6-0.5,42.9c-3.1,16.1-15.3,28.2-31.4,30.9
		c-2.2,0.4-5.5,0.5-16.2,0.5C124.5,5469.5,118.4,5469.4,118.3,5469.3z M151.2,5402.2c4.8-1.3,8.8-4.9,10.4-9.6c1-2.9,1-7.1,0-9.8
		c-1.9-4.9-5.6-8.3-10.3-9.6c-7.7-2-15.9,2.6-18.1,10.3c-0.7,2.3-0.6,6.3,0.1,8.7C135.5,5399.8,143.5,5404.2,151.2,5402.2z"/>
</g>
</svg>
