<?xml version="1.0" encoding="utf-8"?>
<!-- Generator: Adobe Illustrator 21.1.0, SVG Export Plug-In . SVG Version: 6.00 Build 0)  -->
<svg version="1.1" id="Слой_3" xmlns="http://www.w3.org/2000/svg" xmlns:xlink="http://www.w3.org/1999/xlink" x="0px" y="0px"
	 viewBox="0 0 21 21" style="enable-background:new 0 0 21 21;" xml:space="preserve">
<g>
	<path d="M13.7,10.9c0-1.7,1.4-2.6,1.5-2.6C14.4,7.1,13.2,7,12.7,7c-1.1-0.1-2.1,0.6-2.6,0.6C9.5,7.6,8.7,7,7.8,7
		C6.7,7,5.6,7.7,5,8.7c-1.2,2.1-0.3,5.2,0.9,6.9c0.6,0.8,1.3,1.8,2.2,1.7c0.9,0,1.2-0.6,2.3-0.6c1.1,0,1.3,0.6,2.3,0.5
		c0.9,0,1.5-0.9,2.1-1.7c0.7-1,0.9-1.9,1-2C15.6,13.7,13.8,13,13.7,10.9z M12,5.8c0.5-0.6,0.8-1.4,0.7-2.2c-0.7,0-1.5,0.5-2,1
		C10.3,5.2,9.9,6,10,6.8C10.8,6.9,11.5,6.4,12,5.8z"/>
</g>
</svg>
