<?xml version="1.0" encoding="utf-8"?>
<!-- Generator: Adobe Illustrator 21.1.0, SVG Export Plug-In . SVG Version: 6.00 Build 0)  -->
<svg version="1.1" id="Слой_2" xmlns="http://www.w3.org/2000/svg" xmlns:xlink="http://www.w3.org/1999/xlink" x="0px" y="0px"
	 viewBox="0 0 21 21" style="enable-background:new 0 0 21 21;" xml:space="preserve">
<path d="M4.5,5.7C5,5.8,5.5,5.9,6,6c0.3,0.1,0.6,0.2,0.9,0.3c0.5,0.1,0.9,0.3,1.3,0.6C8.4,7,8.6,7.1,8.7,7.3C8.9,7.4,9,7.6,9.1,7.8
	C9.3,8.2,9.4,8.6,9.4,9c0,0.3,0,0.5,0,0.8c0,0.2-0.1,0.5-0.2,0.7c-0.1,0.2-0.3,0.3-0.4,0.4C8.5,11,8.3,11.1,8.1,11
	c-0.3,0-0.6-0.1-0.9-0.2c0-0.9,0-1.8,0-2.7c0-0.2,0-0.3,0-0.5c0-0.1-0.1-0.2-0.2-0.3C7,7.2,6.9,7.2,6.8,7.2c-0.1,0-0.2,0-0.2,0.1
	C6.5,7.4,6.4,7.5,6.4,7.7c0,2.4,0,4.8,0,7.3l-2-0.6C4.5,11.4,4.5,8.5,4.5,5.7z"/>
<path d="M1.6,11.8c0.8-0.3,1.7-0.6,2.5-0.9c0,0.3,0,0.7,0,1c0,0,0,0.1,0,0.1c-0.7,0.2-1.3,0.5-2,0.7c-0.1,0-0.2,0.1-0.3,0.1
	c0,0-0.1,0.1,0,0.1c0,0.1,0.1,0.1,0.1,0.1c0.1,0.1,0.3,0.1,0.5,0.1c0.2,0,0.4,0,0.5-0.1c0.1,0,0.2-0.1,0.3-0.1
	c0.3-0.1,0.6-0.2,0.9-0.3c0,0.3,0,0.6,0,0.8c0,0.1,0,0.1,0,0.2c-0.4,0.1-0.7,0.1-1.1,0.1c-0.7,0-1.4-0.1-2.1-0.3
	c-0.2-0.1-0.4-0.2-0.6-0.3c-0.1-0.1-0.2-0.2-0.2-0.3c0-0.1,0-0.2,0-0.3c0.1-0.1,0.1-0.2,0.2-0.2c0.2-0.1,0.4-0.3,0.7-0.4
	C1.1,11.9,1.4,11.9,1.6,11.8z"/>
<path d="M8.4,11.4c0.2,0,0.4,0,0.6,0c0.6,0,1.3,0.1,1.9,0.3c0.1,0,0.2,0.1,0.4,0.1c0.2,0.1,0.4,0.2,0.6,0.3c0.1,0.1,0.2,0.2,0.2,0.4
	c0,0.1,0,0.2-0.1,0.3c-0.2,0.2-0.3,0.3-0.5,0.4c-0.2,0.1-0.4,0.2-0.6,0.2l-3.9,1.4c0-0.4,0-0.7,0-1.1c0,0,0,0,0,0l3-1.1
	c0.1-0.1,0.3-0.1,0.4-0.2c0.1,0,0.1-0.1,0.1-0.2c0-0.1-0.1-0.1-0.1-0.1c-0.2-0.1-0.3-0.1-0.5-0.1c-0.2,0-0.5,0-0.7,0.1
	c-0.7,0.2-1.4,0.5-2.1,0.7c0-0.4,0-0.8,0-1.2C7.3,11.6,7.9,11.5,8.4,11.4z"/>
<path d="M20.4,9.6C20.4,9.6,20.4,9.6,20.4,9.6c0.3-0.3,0.5-0.7,0.5-1.2c0-0.8-0.5-1.5-1.5-1.5H13c0,0,0,0,0,0v0.5c0,0,0,0,0,0h6
	c0.5,0,0.8,0.4,0.8,0.9S19.5,9.3,19,9.3h-6c0,0,0,0,0,0v0.5c0,0,0,0,0,0h6c0.7,0,0.8,0.7,0.8,1V11c0,0.5-0.2,0.9-0.8,0.9h-6
	c0,0,0,0,0,0v0.5c0,0,0,0,0,0h6.4c1,0,1.5-0.7,1.5-1.5v-0.1C20.9,10.4,20.8,9.9,20.4,9.6L20.4,9.6z"/>
</svg>
