<?xml version="1.0" encoding="utf-8"?>
<!-- Generator: Adobe Illustrator 21.1.0, SVG Export Plug-In . SVG Version: 6.00 Build 0)  -->
<svg version="1.1" id="Слой_2" xmlns="http://www.w3.org/2000/svg" xmlns:xlink="http://www.w3.org/1999/xlink" x="0px" y="0px"
	 viewBox="0 0 21 21" style="enable-background:new 0 0 21 21;" xml:space="preserve">
<style type="text/css">
	.st0{fill:#030104;}
	.st1{display:none;}
</style>
<g>
	<path class="st0" d="M7.2,1.8C7.2,1.9,7.2,1.9,7.2,1.8C7.2,1.8,7.3,1.8,7.2,1.8C8.1,1.3,9,1,10,1c0.9,0,1.8,0.3,2.6,0.7
		c0.1,0,0.2,0.1,0.3,0.2v0C12.1,1.1,10,2.9,10,2.9c-0.7-0.6-1.4-1-1.9-1.1C7.7,1.6,7.4,1.7,7.2,1.8z M13.7,2.6
		C13.6,2.6,13.6,2.6,13.7,2.6c-0.3-0.3-0.5-0.3-0.7-0.3c-0.2,0.1-1,0.4-2.1,1.4c0,0,1.2,1.2,1.9,2.3c0.7,1.2,1.2,2.1,0.9,3.4
		C14.5,8.5,15,7.3,15,6C15,4.7,14.5,3.5,13.7,2.6z M11.9,6.5c-0.3-0.4-0.8-0.9-1.4-1.5c-0.1-0.1-0.3-0.3-0.4-0.4
		c0,0-0.2,0.2-0.5,0.5v0C9.1,5.5,8.6,6,8.3,6.3c-0.5,0.5-1.9,2.2-2,3.1c0,0-0.3-0.7,0.4-2.4c0.4-1.1,1.8-2.8,2.4-3.3
		c0,0-0.5-0.6-1.2-1l0,0c0,0,0,0,0,0c-0.3-0.2-0.7-0.3-1-0.3c-0.3,0-0.5,0.3-0.5,0.3C5.5,3.5,5,4.7,5,6c0,2.8,2.2,5,5,5
		c1.5,0,2.8-0.6,3.7-1.6c0,0-0.1-0.7-0.8-1.6C12.8,7.5,12.2,6.8,11.9,6.5z"/>
</g>
<path class="st1" d="M15.1,16.3l0.8-1.1c-0.3-0.1-0.5-0.2-0.7-0.3c-0.2-0.2-0.3-0.4-0.3-0.7c0-0.3,0.1-0.5,0.4-0.7
	c0.3-0.2,0.7-0.3,1-0.2l0,0c1.4,0,1.7,0.7,2,1l0.7-1c-0.1-0.2-0.3-0.4-0.5-0.5c-0.5-0.4-1.3-0.6-2.3-0.6c-0.9,0-1.6,0.2-2.1,0.6
	c-0.5,0.4-0.8,0.9-0.7,1.6C13.4,15.3,14,15.9,15.1,16.3z M18.9,16.2c-0.3-0.3-0.9-0.5-1.6-0.7l-0.8,1.1c0.4,0.1,0.8,0.2,1.2,0.5
	c0.2,0.2,0.3,0.4,0.3,0.7c0,0.3-0.1,0.6-0.4,0.8c-0.3,0.2-0.7,0.3-1.1,0.3l0,0c-1.1,0-1.7-0.4-2.2-1.4l0,0l-0.8,1.1
	c0.1,0.3,0.3,0.5,0.6,0.8c0.6,0.5,1.4,0.7,2.4,0.7c1,0,1.7-0.2,2.3-0.6c0.5-0.4,0.8-1,0.8-1.7C19.5,17.1,19.3,16.6,18.9,16.2
	L18.9,16.2z M12.1,19.8h-0.3v-7.6h0.3L12.1,19.8z M2.4,12.2c0.1,0,0.2,0,0.3,0.1c0.1,0.2,0.1,0.5,0,0.8c-0.1,0.1-0.2,0.1-0.3,0.1h0
	V13h0c0.1,0,0.1,0,0.2-0.1c0-0.1,0.1-0.1,0.1-0.2c0-0.1,0-0.1,0-0.2c0,0-0.1-0.1-0.1-0.1c0,0-0.1,0-0.1,0.1c0,0.1-0.1,0.1-0.1,0.2
	l0,0.1c0,0.1-0.1,0.2-0.1,0.3c-0.1,0.1-0.2,0.1-0.2,0.1c-0.1,0-0.2,0-0.3-0.1c-0.1-0.1-0.1-0.2-0.1-0.3c0-0.1,0-0.3,0.1-0.4
	c0.1-0.1,0.2-0.1,0.3-0.1h0v0.2h0c-0.1,0-0.1,0-0.2,0.1c0,0.1-0.1,0.1,0,0.2c0,0.1,0,0.1,0,0.2c0,0,0.1,0.1,0.1,0.1
	c0,0,0.1,0,0.1-0.1C2,12.9,2,12.8,2,12.7l0-0.1c0-0.1,0.1-0.2,0.1-0.3C2.2,12.2,2.3,12.2,2.4,12.2L2.4,12.2z M2.1,18.9
	C2.1,19,2,19.1,2,19.2l0,0.1c0,0.1,0,0.1-0.1,0.2c0,0-0.1,0.1-0.1,0.1c0,0-0.1,0-0.1-0.1c0,0,0-0.1,0-0.2c0-0.1,0-0.1,0-0.2
	c0,0,0.1-0.1,0.2-0.1h0v-0.2h0c-0.1,0-0.2,0-0.3,0.1c-0.1,0.1-0.1,0.2-0.1,0.4c0,0.1,0,0.2,0.1,0.3c0.1,0.1,0.2,0.1,0.3,0.1
	c0.1,0,0.2,0,0.2-0.1c0.1-0.1,0.1-0.2,0.1-0.3l0-0.1c0-0.1,0-0.1,0.1-0.2c0,0,0.1-0.1,0.1-0.1c0.1,0,0.1,0,0.1,0.1
	c0,0.1,0,0.1,0,0.2c0,0.1,0,0.2-0.1,0.2c0,0.1-0.1,0.1-0.2,0.1h0v0.2h0c0.1,0,0.2,0,0.3-0.1c0.1-0.2,0.1-0.5,0-0.8
	c-0.1-0.1-0.2-0.1-0.3-0.1C2.3,18.8,2.2,18.8,2.1,18.9L2.1,18.9z M2.7,15.9v0.2l0,0c0,0-0.1,0-0.1,0l-0.1,0c-0.1,0-0.1,0-0.2,0.1
	c0,0,0,0.1,0,0.1v0.3h0.5v0.2H1.5v-0.6c0,0,0-0.1,0-0.1c0,0,0,0,0,0c0-0.1,0-0.2,0.1-0.2l0,0c0,0,0,0,0,0c0.1-0.1,0.2-0.1,0.3-0.1
	c0.1,0,0.3,0.1,0.3,0.2c0-0.1,0-0.1,0.1-0.1c0.1,0,0.1,0,0.2,0l0.2,0C2.6,16,2.7,15.9,2.7,15.9L2.7,15.9z M1.9,16.2
	c-0.1,0-0.1,0-0.1,0.1c0,0,0,0.1,0,0.2v0.3h0.4v-0.3c0-0.1,0-0.1,0-0.2C2,16.2,1.9,16.2,1.9,16.2L1.9,16.2z M1.5,15.4h1.2v-0.2H1.5
	V15.4z M1.7,13.7H1.5v0.9h1.2v-0.9H2.5v0.7H2.2v-0.6H2v0.6H1.7L1.7,13.7z M1.7,17.4H1.5v0.9h1.2v-0.9H2.5v0.7H2.2v-0.6H2v0.6H1.7
	L1.7,17.4z M3.3,19.8h1.6l1.2-1.7L5.3,17L3.3,19.8z M10.4,12.3H8.8l-1,1.4l0.8,1.1L10.4,12.3z M5.1,12.3H3.5L9,19.8h1.6L5.1,12.3z"
	/>
<path d="M4.6,16.1l0.8-1.1c-0.3-0.1-0.5-0.2-0.8-0.3c-0.2-0.2-0.4-0.5-0.3-0.7c0-0.3,0.1-0.6,0.4-0.7c0.3-0.2,0.7-0.3,1.1-0.3l0,0
	c1.5,0,1.8,0.8,2.1,1.1l0.8-1.1c-0.1-0.2-0.3-0.4-0.5-0.6c-0.5-0.4-1.3-0.7-2.4-0.7c-0.9,0-1.7,0.2-2.2,0.6c-0.5,0.4-0.8,1-0.8,1.6
	C2.8,15,3.4,15.7,4.6,16.1z M8.6,16c-0.4-0.3-0.9-0.6-1.7-0.8l-0.8,1.2c0.4,0.1,0.9,0.3,1.2,0.5c0.2,0.2,0.4,0.4,0.4,0.7
	c0,0.3-0.1,0.7-0.4,0.9c-0.4,0.2-0.8,0.3-1.2,0.3l0,0c-1.2,0-1.8-0.4-2.4-1.4l0,0l-0.8,1.1c0.1,0.3,0.4,0.6,0.6,0.8
	C4.1,19.8,4.9,20,6,20c1,0,1.8-0.2,2.4-0.6c0.6-0.4,0.9-1.1,0.9-1.8C9.3,17,9,16.4,8.6,16L8.6,16z M10.1,20h1.7l1.3-1.8L12.3,17
	L10.1,20z M17.7,12h-1.7l-1.1,1.5l0.9,1.2L17.7,12z M12.1,12h-1.7l5.8,8h1.7L12.1,12z"/>
</svg>
