<?xml version="1.0" encoding="utf-8"?>
<!-- Generator: Adobe Illustrator 21.1.0, SVG Export Plug-In . SVG Version: 6.00 Build 0)  -->
<svg version="1.1" id="Слой_2" xmlns="http://www.w3.org/2000/svg" xmlns:xlink="http://www.w3.org/1999/xlink" x="0px" y="0px"
	 viewBox="0 0 21 21" style="enable-background:new 0 0 21 21;" xml:space="preserve">
<style type="text/css">
	.st0{fill:#030104;}
	.st1{display:none;}
	.st2{stroke:#000105;stroke-width:0.25;stroke-miterlimit:10;}
</style>
<g>
	<path class="st0" d="M7.2,1.8C7.2,1.9,7.2,1.9,7.2,1.8C7.2,1.8,7.3,1.8,7.2,1.8C8.1,1.3,9,1,10,1c0.9,0,1.8,0.3,2.6,0.7
		c0.1,0,0.2,0.1,0.3,0.2v0C12.1,1.1,10,2.9,10,2.9c-0.7-0.6-1.4-1-1.9-1.1C7.7,1.6,7.4,1.7,7.2,1.8z M13.7,2.6
		C13.6,2.6,13.6,2.6,13.7,2.6c-0.3-0.3-0.5-0.3-0.7-0.3c-0.2,0.1-1,0.4-2.1,1.4c0,0,1.2,1.2,1.9,2.3c0.7,1.2,1.2,2.1,0.9,3.4
		C14.5,8.5,15,7.3,15,6C15,4.7,14.5,3.5,13.7,2.6z M11.9,6.5c-0.3-0.4-0.8-0.9-1.4-1.5c-0.1-0.1-0.3-0.3-0.4-0.4
		c0,0-0.2,0.2-0.5,0.5v0C9.1,5.5,8.6,6,8.3,6.3c-0.5,0.5-1.9,2.2-2,3.1c0,0-0.3-0.7,0.4-2.4c0.4-1.1,1.8-2.8,2.4-3.3
		c0,0-0.5-0.6-1.2-1l0,0c0,0,0,0,0,0c-0.3-0.2-0.7-0.3-1-0.3c-0.3,0-0.5,0.3-0.5,0.3C5.5,3.5,5,4.7,5,6c0,2.8,2.2,5,5,5
		c1.5,0,2.8-0.6,3.7-1.6c0,0-0.1-0.7-0.8-1.6C12.8,7.5,12.2,6.8,11.9,6.5z"/>
</g>
<path id="text2400" class="st1" d="M2.8,16.2v-0.8h0.9c0.6,0,1.1-0.1,1.4-0.4c0.3-0.3,0.4-0.6,0.4-0.9c0-0.4-0.2-0.7-0.5-1
	c-0.3-0.2-0.7-0.4-1.1-0.4c-0.9,0-1.4,0.4-1.8,1.2H1.2c0.5-1.3,1.4-2,2.7-2c0.7,0,1.3,0.2,1.8,0.6C6.2,13,6.5,13.4,6.5,14
	c0,0.4-0.1,0.8-0.4,1.1c-0.3,0.3-0.6,0.5-1.1,0.6c0.5,0.1,0.9,0.3,1.2,0.6c0.3,0.3,0.5,0.8,0.5,1.3c0,0.6-0.3,1.2-0.8,1.6
	c-0.5,0.4-1.2,0.7-2.1,0.7c-0.7,0-1.3-0.2-1.8-0.5C1.5,19,1,18.1,1,17.2h0.9c0.2,1.2,0.9,2,2,2c0.7,0,1.2-0.1,1.5-0.4
	c0.3-0.3,0.4-0.6,0.4-1c0-0.4-0.2-0.8-0.5-1.1c-0.4-0.3-0.9-0.4-1.5-0.4H2.8z M12.5,13.9h-0.9c-0.3-0.8-0.8-1.2-1.6-1.2
	c-1.4,0-2.2,1-2.2,3.3c0.2-0.5,0.5-0.8,1-1.1c0.4-0.3,0.9-0.4,1.3-0.4c0.7,0,1.3,0.2,1.8,0.7c0.5,0.5,0.7,1.3,0.7,2
	c0,0.7-0.3,1.3-0.8,1.8c-0.5,0.5-1.2,0.8-1.9,0.8c-0.9,0-1.6-0.3-2.1-1c-0.5-0.7-0.8-1.6-0.8-2.8c0-1.1,0.3-2.1,0.8-2.9
	C8.2,12.4,9,12,10,12C11.3,12,12.1,12.6,12.5,13.9L12.5,13.9z M9.9,19.1c0.5,0,1-0.2,1.3-0.5c0.3-0.4,0.5-0.8,0.5-1.3
	c0-0.5-0.2-1.1-0.5-1.5c-0.3-0.4-0.8-0.5-1.2-0.5c-0.5,0-1,0.2-1.3,0.6c-0.4,0.4-0.6,1-0.6,1.5c0,0.5,0.2,0.9,0.5,1.2
	C8.9,18.9,9.3,19.1,9.9,19.1L9.9,19.1z M16,19.9c-0.9,0-1.6-0.4-2.2-1.1c-0.5-0.8-0.8-1.7-0.8-2.8c0-1.1,0.2-2,0.7-2.8
	c0.5-0.8,1.2-1.1,2.2-1.1c1,0,1.7,0.4,2.2,1.2C18.7,14,19,14.9,19,16c0,1-0.3,2-0.8,2.7C17.7,19.5,17,19.9,16,19.9L16,19.9z
	 M16,19.1c0.7,0,1.2-0.3,1.5-0.9c0.3-0.6,0.5-1.3,0.5-2.2c0-1-0.2-1.8-0.5-2.4c-0.3-0.6-0.8-1-1.5-1c-0.7,0-1.2,0.3-1.5,0.9
	c-0.3,0.6-0.5,1.4-0.5,2.3c0,1,0.2,1.8,0.5,2.4C14.9,18.8,15.4,19.1,16,19.1L16,19.1z"/>
<path class="st2" d="M12.7,12.1v5.5l-4-5.5l-0.7,0v6.7h0.7v-5.4l3.9,5.4l0.7,0v-6.7H12.7z M4.2,12C2.3,12,1,13.4,1,15.5
	C1,17.5,2.3,19,4.2,19c1.9,0,3.2-1.4,3.2-3.5C7.4,13.4,6.1,12,4.2,12 M4.2,18.3c-1.4,0-2.4-1.1-2.4-2.8c0-1.6,1-2.8,2.4-2.8
	c1.4,0,2.4,1.1,2.4,2.8C6.6,17.1,5.6,18.3,4.2,18.3 M15,18.2v-2.5h3.7V15H15v-2.3H19v-0.7h-4.7v6.7H19v-0.7H15z"/>
</svg>
