<?xml version="1.0" encoding="utf-8"?>
<!-- Generator: Adobe Illustrator 21.1.0, SVG Export Plug-In . SVG Version: 6.00 Build 0)  -->
<svg version="1.1" xmlns="http://www.w3.org/2000/svg" xmlns:xlink="http://www.w3.org/1999/xlink" x="0px" y="0px" width="100" height="21"
	 viewBox="0 0 100 21" style="enable-background:new 0 0 100 21;" xml:space="preserve">
<style type="text/css">
	.st0{fill:#1877F2;}
</style>
	<g>
		<path class="st0" d="M21.7,16.8h-2.5v-6.3h-1.7V8.4h1.7V7c0-1.7,0.8-3,3.3-3c0.5,0,1.4,0.1,1.4,0.1V6h-0.9c-0.9,0-1.2,0.3-1.2,1
			v1.4h2.1l-0.2,2.1h-1.9L21.7,16.8z M27.5,8.3c0,0-0.1,0-0.1,0C25,8.3,24,10,24,12.5c0,3.2,1.4,4.4,3.4,4.4c1.2,0,1.9-0.5,2.4-1.4
			v1.2h2.4V8.4h-2.4v1.3C29.4,8.9,28.6,8.3,27.5,8.3z M28.1,10.2c1,0,1.6,0.7,1.6,1.9l0,1.2c0,0.8-0.5,1.7-1.6,1.7
			c-1.7,0-1.6-1.8-1.6-2.4C26.5,10.6,27.4,10.2,28.1,10.2L28.1,10.2z M33.2,12.6c0-1,0-4.3,4.3-4.3c1.7,0,2.5,0.6,2.5,0.6l-0.6,1.8
			c0,0-0.7-0.4-1.7-0.4c-1.2,0-2,0.7-2,1.9l0,0.9c0,1.2,0.7,2,2,2c0.9,0,1.7-0.4,1.7-0.4l0.6,1.8c0,0-0.7,0.6-2.4,0.6
			C33.4,17,33.2,14,33.2,12.6L33.2,12.6z M54,8.3c2.3,0,3.4,1.8,3.4,4.3c0,3.2-1.4,4.4-3.4,4.4c-1.2,0-2-0.5-2.5-1.4v1.2l-2.4,0V4.3
			L51.7,4v5.6C52,8.6,53.2,8.3,54,8.3L54,8.3z M53.3,10.2c-1,0-1.7,0.7-1.7,1.9l0,1.2c0,0.8,0.5,1.7,1.7,1.7c1.7,0,1.6-1.8,1.6-2.4
			C55,10.6,54.1,10.2,53.3,10.2L53.3,10.2z M44.3,8.3c-2.7,0-4.1,1.5-4.1,4v0.5c0,3.3,2,4.2,4.3,4.2c2.3,0,3.3-0.6,3.3-0.6l-0.5-1.7
			c0,0-1.2,0.5-2.5,0.5c-1.4,0-2-0.4-2.1-1.7h5.3v-1.4C48.1,9.3,46.5,8.3,44.3,8.3L44.3,8.3z M44.4,10c0.9,0,1.5,0.6,1.5,1.9h-3.1
			C42.8,10.5,43.4,10,44.4,10L44.4,10z M62.5,8.3c-2.7,0-4.2,1.5-4.2,4.3c0,3.8,2.5,4.4,4.2,4.4c2.5,0,4.1-1.3,4.1-4.4
			C66.7,9.5,64.8,8.3,62.5,8.3L62.5,8.3z M62.5,10.3c1.2,0,1.7,0.9,1.7,1.9v0.9c0,1.2-0.7,2-1.7,2c-1,0-1.6-0.7-1.6-2v-0.9
			C60.9,10.8,61.7,10.3,62.5,10.3z M71.7,8.3c-2.7,0-4.2,1.5-4.2,4.3c0,3.8,2.5,4.4,4.2,4.4c2.5,0,4.1-1.3,4.1-4.4
			C75.8,9.5,74,8.3,71.7,8.3L71.7,8.3z M71.6,10.3c1.2,0,1.7,0.9,1.7,1.9v0.9c0,1.2-0.7,2-1.7,2c-1,0-1.6-0.7-1.6-2v-0.9
			C70,10.8,70.8,10.3,71.6,10.3z M76.8,16.8V4.3L79.3,4v8.4l2.5-4h2.7l-2.6,4.1l2.7,4.2h-2.7l-2.6-4.1v4.1H76.8z"/>
	</g>
</svg>
