<?xml version="1.0" encoding="utf-8"?>
<!-- Generator: Adobe Illustrator 21.1.0, SVG Export Plug-In . SVG Version: 6.00 Build 0)  -->
<svg version="1.1" xmlns="http://www.w3.org/2000/svg" xmlns:xlink="http://www.w3.org/1999/xlink" x="0px" y="0px" width="100" height="21"
	 viewBox="0 0 100 21" style="enable-background:new 0 0 100 21;" xml:space="preserve">
<style type="text/css">
	.st3{fill:#4285F4;}
	.st4{fill:#EA4335;}
	.st5{fill:#FBBC05;}
	.st6{fill:#34A853;}
</style>

<g id="google">
	<path class="st3" d="M29.3,9.4v1.9h4.6c-0.1,1.1-0.5,1.9-1,2.4c-0.7,0.7-1.7,1.4-3.6,1.4c-2.8,0-5.1-2.3-5.1-5.1s2.2-5.1,5.1-5.1
		c1.5,0,2.6,0.6,3.5,1.4L34.1,5c-1.1-1.1-2.7-2-4.8-2c-3.9,0-7.1,3.2-7.1,7s3.3,7,7.1,7c2.1,0,3.7-0.7,4.9-2
		c1.3-1.3,1.7-3.1,1.7-4.5c0-0.4,0-0.9-0.1-1.2H29.3z"/>
	<path class="st4" d="M41.6,7.8c-2.5,0-4.6,1.9-4.6,4.5c0,2.6,2.1,4.5,4.6,4.5c2.5,0,4.6-1.9,4.6-4.5C46.2,9.8,44.1,7.8,41.6,7.8z
		 M41.6,15.2c-1.4,0-2.6-1.1-2.6-2.8c0-1.6,1.2-2.8,2.6-2.8s2.6,1.1,2.6,2.8C44.2,14,43,15.2,41.6,15.2z"/>
	<path class="st3" d="M64,8.9L64,8.9c-0.5-0.5-1.4-1-2.5-1c-2.3,0-4.3,2-4.3,4.5c0,2.6,2,4.5,4.3,4.5c1.1,0,1.9-0.5,2.4-1H64v0.6
		c0,1.7-0.9,2.7-2.4,2.7c-1.2,0-2-0.9-2.3-1.6l-1.7,0.7c0.5,1.2,1.8,2.7,4,2.7c2.3,0,4.3-1.4,4.3-4.7V8.1H64V8.9z M61.7,15.2
		c-1.4,0-2.4-1.2-2.4-2.8c0-1.6,1-2.8,2.4-2.8c1.4,0,2.4,1.2,2.4,2.8C64.1,14,63,15.2,61.7,15.2z"/>
	<path class="st5" d="M51.8,7.8c-2.5,0-4.6,1.9-4.6,4.5c0,2.6,2.1,4.5,4.6,4.5c2.5,0,4.6-1.9,4.6-4.5C56.3,9.8,54.3,7.8,51.8,7.8z
		 M51.8,15.2c-1.4,0-2.6-1.1-2.6-2.8c0-1.6,1.2-2.8,2.6-2.8c1.4,0,2.6,1.1,2.6,2.8C54.3,14,53.2,15.2,51.8,15.2z"/>
	<path class="st6" d="M67.4,3.2h2v13.8h-2V3.2z"/>
	<path class="st4" d="M75.5,15.2c-1,0-1.7-0.5-2.2-1.4l6.1-2.5l-0.2-0.5c-0.4-1-1.5-2.9-3.9-2.9c-2.3,0-4.3,1.8-4.3,4.5
		c0,2.6,1.9,4.5,4.5,4.5c2.1,0,3.3-1.3,3.8-2l-1.6-1C77.2,14.7,76.5,15.2,75.5,15.2L75.5,15.2z M75.3,9.6c0.8,0,1.5,0.4,1.7,1
		l-4.1,1.7C72.9,10.3,74.3,9.6,75.3,9.6z"/>
</g>
</svg>
