<?xml version="1.0" encoding="utf-8"?>
<svg version="1.1" xmlns="http://www.w3.org/2000/svg" xmlns:xlink="http://www.w3.org/1999/xlink" x="0px" y="0px" width="100" height="21"
	 viewBox="0 0 100 21" style="enable-background:new 0 0 100 21;" xml:space="preserve">
	<style type="text/css">
		.st0{fill:#000;}
	</style>
	<path class="st0" d="M95,11h-0.4V9.9l-0.4,0.7h-0.2l-0.2-0.7V11h-0.4V9.2h0.4l0.4,1l0.4-1H95V11z M93,9.5h-0.4V11h-0.4V9.5h-0.4V9.2H93V9.5z
		 M90.6,16.3h-1.3v-4.2l-1.5,2.7h-0.9l-1.3-2.7v4.2h-1.5V9.2h1.5l1.7,3.9l2-3.9h1.3V16.3z M82.2,16.3h-1.5l-0.4-1.3h-2.4l-0.4,1.3
		h-1.5l2.6-7.2h1.1L82.2,16.3z M80,13.9l-0.9-2.6l-0.9,2.6H80z M73.7,16.3h-4.8V9.2h4.8v1.2h-3.3v1.7h2.8v1.2h-2.8v1.8h3.3V16.3
		L73.7,16.3z M66.7,10.4H65v5.9h-1.5v-5.9h-2V9.2h5.2V10.4z M59.7,14.2c0,1.5-1.3,2.2-2.6,2.2c-1.3,0-2.2-0.3-2.6-1l0.9-0.9
		c0.4,0.4,0.9,0.6,1.7,0.6s1.3-0.3,1.3-0.9c0-0.5-0.4-0.8-0.9-0.9l-0.9-0.1c-1.3-0.2-2-0.8-2-2c0-0.7,0.2-1.2,0.7-1.6
		c0.4-0.4,1.1-0.6,1.7-0.6c1.1,0,1.7,0.3,2.4,0.8l-0.9,0.9c-0.4-0.3-0.9-0.5-1.5-0.5c-0.7,0-1.1,0.3-1.1,0.9c0,0.5,0.4,0.7,0.9,0.8
		l0.9,0.1C58.9,12.3,59.7,13,59.7,14.2z M49.2,6.6c0,1.8-1.6,3.2-3.3,3.2c-1.8,0-3.1-1.4-3.1-3.2c0-1.7,1.4-3.2,3.1-3.2
		C47.7,3.4,49.2,4.8,49.2,6.6z M45.9,0.6c-3.1,0-5.9,2.6-5.9,5.9l-3.7,5.3c-0.2,0-0.2,0-0.4,0c-0.8,0-1.6,0.2-2.4,0.6L16.8,5.7
		c-0.5-2-2.2-3.5-4.4-3.5C10,2.2,8,4.2,8,6.6c0,2.4,2,4.4,4.4,4.4c0.8,0,1.6-0.2,2.3-0.6l16.9,6.7c0.4,2.1,2.2,3.4,4.3,3.4
		c2.2,0,4.1-1.8,4.3-3.9l5.7-4.2c3.3,0,6.1-2.7,6.1-6C52,3.3,49.2,0.6,45.9,0.6z M45.9,2.6c2.4,0,4.1,1.8,4.1,4c0,2.2-1.8,4-4.1,4
		c-2.2,0-3.9-1.8-3.9-4C42,4.4,43.7,2.6,45.9,2.6L45.9,2.6z M12.4,3.4c1.3,0,2.4,0.7,2.9,1.7l-1.6-0.6c-1.3-0.5-2.8,0.2-3.3,1.5
		c-0.5,1.3,0.1,2.8,1.4,3.4l1.4,0.5c-0.2,0.1-0.5,0.1-0.7,0.1c-1.8,0-3.3-1.5-3.3-3.3C9.2,4.8,10.6,3.4,12.4,3.4z M35.9,13
		c1.8,0,3.1,1.5,3.1,3.3c0,1.8-1.4,3.2-3.1,3.2c-1.4,0-2.4-0.6-2.9-1.7c0.6,0.3,1,0.5,1.6,0.7c1.4,0.6,2.7-0.2,3.3-1.5
		c0.4-1.2,0-2.9-1.4-3.4l-1.4-0.5C35.3,13,35.7,13,35.9,13L35.9,13z"/>
</svg>
