<?xml version="1.0" encoding="utf-8"?>
<svg version="1.1" xmlns="http://www.w3.org/2000/svg" xmlns:xlink="http://www.w3.org/1999/xlink" x="0px" y="0px" width="100" height="21"
	 viewBox="0 0 100 21" style="enable-background:new 0 0 100 21;" xml:space="preserve">
<style type="text/css">
	.st7{fill:#4C75A3;}
</style>
	<path class="st7" d="M11.6,20c-1.7,0-3-1.4-3-3V7.2c0-1.7,1.4-3,3-3h9.7c1.7,0,3,1.4,3,3V17c0,1.7-1.4,3-3,3L11.6,20L11.6,20
		L11.6,20z M13.3,16.8h3.7c0.6,0,1.1-0.1,1.6-0.2c0.4-0.1,0.8-0.3,1.1-0.6c0.3-0.2,0.5-0.5,0.7-0.9c0.2-0.4,0.3-0.8,0.3-1.2
		c0-0.6-0.2-1.1-0.5-1.5c-0.3-0.3-0.7-0.6-1.2-0.7c0.3-0.2,0.6-0.4,0.7-0.7c0.2-0.4,0.3-0.8,0.3-1.2c0-0.4-0.1-0.7-0.2-1.1
		C19.6,8.4,19.3,8.2,19,8c-0.3-0.2-0.6-0.3-1-0.3c-0.3-0.1-0.8-0.1-1.5-0.1h-3.3L13.3,16.8L13.3,16.8L13.3,16.8z M15.7,14.9v-2H16
		c0.4,0,0.7,0,0.9,0c0.2,0,0.4,0,0.5,0.1c0.2,0.1,0.4,0.2,0.5,0.3c0.1,0.1,0.1,0.3,0.1,0.6c0,0.2,0,0.4-0.1,0.5
		c-0.1,0.2-0.2,0.3-0.4,0.3c-0.2,0.1-0.4,0.1-0.6,0.2C16.7,14.9,16.3,14.9,15.7,14.9L15.7,14.9L15.7,14.9z M15.7,11.1V9.4h0
		c0.4,0,0.7,0,0.9,0c0.2,0,0.3,0,0.5,0.1c0.1,0.1,0.2,0.2,0.3,0.3c0.1,0.1,0.1,0.3,0.1,0.4c0,0.2,0,0.3-0.1,0.5
		c-0.1,0.1-0.2,0.2-0.3,0.3c-0.1,0.1-0.3,0.1-0.4,0.1c-0.1,0-0.4,0-0.8,0L15.7,11.1L15.7,11.1z"/>
	<g>
		<path class="st7" d="M39.6,16.2c-1.3,0-2.2-0.4-2.9-1.1c-0.7-0.7-1-1.8-1-3c0-1.3,0.4-2.3,1-3C37.3,8.3,38.3,8,39.6,8
			c1.3,0,2.3,0.4,2.9,1.1c0.7,0.7,1,1.8,1,3c0,1.3-0.4,2.3-1,3C41.8,15.9,40.8,16.2,39.6,16.2L39.6,16.2z M39.6,9.5
			c-0.2,0-0.5,0-0.6,0.1c-0.2,0.1-0.4,0.2-0.5,0.4c-0.1,0.2-0.3,0.5-0.4,0.8c-0.1,0.3-0.1,0.8-0.1,1.2c0,0.5,0,0.9,0.1,1.2
			c0.1,0.3,0.2,0.6,0.3,0.8c0.1,0.2,0.3,0.3,0.5,0.4c0.2,0.1,0.4,0.1,0.7,0.1c0.2,0,0.4,0,0.6-0.1c0.2-0.1,0.4-0.2,0.5-0.4
			c0.2-0.2,0.3-0.5,0.3-0.8c0.1-0.3,0.1-0.7,0.1-1.2c0-0.5,0-0.9-0.1-1.2c-0.1-0.3-0.2-0.6-0.3-0.8c-0.2-0.2-0.3-0.4-0.5-0.5
			C40,9.6,39.8,9.5,39.6,9.5L39.6,9.5z M90.8,16.2c-1.5,0-2.6-0.4-3.4-1.1c-0.8-0.7-1.2-1.7-1.2-3c0-1.3,0.4-2.3,1.1-3
			c0.7-0.8,1.7-1.1,3-1.1c1.2,0,2.1,0.3,2.7,1c0.6,0.6,0.9,1.6,0.9,2.8v0.8h-5.4l0,0.1c0,0.4,0.1,0.7,0.2,1c0.1,0.3,0.3,0.5,0.6,0.6
			c0.2,0.2,0.5,0.3,0.8,0.3c0.3,0.1,0.6,0.1,0.9,0.1c0.3,0,0.6,0,0.9-0.1c0.3-0.1,0.5-0.1,0.8-0.3c0.2-0.1,0.4-0.2,0.6-0.3
			c0.1-0.1,0.3-0.2,0.4-0.3h0.1v1.9c-0.2,0.1-0.3,0.1-0.5,0.2c-0.2,0.1-0.4,0.1-0.7,0.2c-0.3,0.1-0.5,0.1-0.8,0.2
			C91.6,16.2,91.3,16.2,90.8,16.2L90.8,16.2z M90.3,9.3c-0.5,0-0.9,0.2-1.2,0.5c-0.3,0.3-0.4,0.7-0.5,1.2l0,0.1h3.2l0-0.1
			c0-0.6-0.1-1-0.4-1.3C91.1,9.5,90.8,9.3,90.3,9.3L90.3,9.3z M63.7,16.2c-0.7,0-1.2-0.2-1.7-0.7c-0.4-0.4-0.7-1-0.7-1.7
			c0-0.6,0.1-1,0.3-1.4c0.2-0.3,0.6-0.6,1-0.8c0.4-0.2,1-0.4,1.6-0.4c0.6-0.1,1.3-0.1,2-0.2l0.1,0v-0.1c0-0.5-0.2-0.8-0.5-1
			c-0.3-0.2-0.8-0.3-1.5-0.3c-0.3,0-0.7,0.1-1.1,0.2c-0.4,0.1-0.8,0.2-1.1,0.4h-0.1V8.4c0.2-0.1,0.6-0.1,1.1-0.2
			C63.7,8,64.2,8,64.8,8c1.3,0,2.3,0.2,2.9,0.7c0.6,0.4,0.9,1.1,0.9,2V16h-2.2v-1l-0.6,0.5c-0.1,0.1-0.3,0.2-0.5,0.3
			C65,16,64.8,16,64.6,16.1C64.4,16.2,64.1,16.2,63.7,16.2L63.7,16.2z M66.2,12.2c-0.4,0-0.8,0.1-1,0.1c-0.3,0-0.5,0.1-0.8,0.2
			c-0.2,0.1-0.4,0.2-0.6,0.4c-0.1,0.2-0.2,0.4-0.2,0.7c0,0.4,0.1,0.7,0.3,0.9c0.2,0.2,0.5,0.2,0.9,0.2c0.2,0,0.5-0.1,0.7-0.2
			c0.2-0.1,0.5-0.3,0.6-0.4l0,0v-1.8L66.2,12.2L66.2,12.2z M81,16V9.7h-2.5V8.2h7.2v1.5h-2.5V16L81,16L81,16z M75.6,16l-1.9-3.2
			h-0.8V16h-2.3V8.2h2.3v3.2l0.1,0c0.4,0,0.6-0.1,0.8-0.2c0.2-0.1,0.4-0.4,0.6-0.8c0.1-0.1,0.1-0.3,0.2-0.5c0.1-0.1,0.1-0.3,0.2-0.4
			l0-0.1c0.2-0.5,0.5-0.8,0.9-1c0.3-0.2,0.8-0.3,1.3-0.3c0.2,0,0.4,0,0.5,0c0.1,0,0.2,0,0.2,0v1.9h-0.4c-0.2,0-0.3,0-0.5,0.1
			c-0.1,0.1-0.2,0.1-0.3,0.2c-0.1,0.1-0.2,0.2-0.2,0.3l-0.1,0.3c-0.1,0.2-0.2,0.4-0.2,0.5c0,0.1-0.1,0.2-0.2,0.3l-0.1,0.1l2.5,4
			L75.6,16L75.6,16L75.6,16z M56.1,16V9.7h-2.5V8.2h7.2v1.5h-2.5V16L56.1,16L56.1,16z M50.1,16v-3.4h-2.8V16h-2.3V8.2h2.3V11h2.8
			V8.2h2.3V16H50.1z M32.4,16l-1.9-3.2h-0.8V16h-2.3V8.2h2.3v3.2l0.1,0c0.4,0,0.6-0.1,0.8-0.2c0.2-0.1,0.4-0.4,0.6-0.8
			c0.1-0.1,0.1-0.3,0.2-0.5c0.1-0.2,0.1-0.3,0.2-0.4l0,0c0.2-0.5,0.5-0.8,0.9-1c0.3-0.2,0.8-0.3,1.3-0.3c0.2,0,0.4,0,0.5,0
			c0.1,0,0.2,0,0.2,0v1.9h-0.4c-0.2,0-0.3,0-0.5,0.1c-0.1,0.1-0.2,0.1-0.3,0.2c-0.1,0.1-0.2,0.2-0.2,0.3l-0.1,0.3
			c-0.1,0.2-0.2,0.4-0.2,0.5c0,0.1-0.1,0.2-0.2,0.3l-0.1,0.1l2.5,4L32.4,16L32.4,16z"/>
	</g>
</svg>
