<?xml version="1.0" encoding="utf-8"?>
<!-- Generator: Adobe Illustrator 21.1.0, SVG Export Plug-In . SVG Version: 6.00 Build 0)  -->
<svg version="1.1" xmlns="http://www.w3.org/2000/svg" xmlns:xlink="http://www.w3.org/1999/xlink" x="0px" y="0px"
	 viewBox="0 0 21 21" style="enable-background:new 0 0 21 21;" xml:space="preserve">
<style type="text/css">
	.st0{fill:#adadad;}
	.st1{fill:none;stroke:#adadad;stroke-miterlimit:10;}
</style>
<g id="Слой_4">
	<g>
		<path class="st0" d="M14,8v6H6V8H14 M15,7H5v8h10V7L15,7z"/>
	</g>
	<g>
		<rect x="7" y="9" class="st0" width="6" height="4"/>
	</g>
	<line class="st1" x1="8" y1="15.5" x2="12" y2="15.5"/>
	<line class="st1" x1="5" y1="16.5" x2="15" y2="16.5"/>
</g>
<g id="Слой_5">
	<path class="st1" d="M5,10.5c-1.7,0-2.8,0-4.5,0c0-2.7,0-4.3,0-7h8c0,1.3,0,2.2,0,3.5"/>
	<line class="st1" x1="3" y1="11.5" x2="5" y2="11.5"/>
	<line class="st1" x1="0" y1="12.5" x2="5" y2="12.5"/>
	<g>
		<polygon class="st0" points="5,7 7,7 7,5 2,5 2,9 5,9 		"/>
	</g>
</g>
<g id="Слой_6">
	<path class="st1" d="M15,10.5c1.7,0,2.8,0,4.5,0c0-2.7,0-4.3,0-7h-8c0,1.3,0,2.2,0,3.5"/>
	<line class="st1" x1="17" y1="11.5" x2="15" y2="11.5"/>
	<line class="st1" x1="20" y1="12.5" x2="15" y2="12.5"/>
	<g>
		<polygon class="st0" points="15,7 13,7 13,5 18,5 18,9 15,9 		"/>
	</g>
</g>
</svg>
