<?xml version="1.0" encoding="utf-8"?>
<!-- Generator: Adobe Illustrator 21.1.0, SVG Export Plug-In . SVG Version: 6.00 Build 0)  -->
<svg version="1.1" xmlns="http://www.w3.org/2000/svg" xmlns:xlink="http://www.w3.org/1999/xlink" x="0px" y="0px"
	 viewBox="0 0 21 21" style="enable-background:new 0 0 21 21;" xml:space="preserve">
<style xmlns="http://www.w3.org/2000/svg">:root>g{display:none}:root>g:target{display:block}</style>
<style type="text/css">
	.st0{fill:#006CB4;}
	.st1{fill:#FF8C00;}
	.st2{fill:#003087;}
	.st3{fill:#009CDE;}
	.st4{fill:#FECC00;}
	.st5{fill:#4DB45F;}
	.st6{fill:url(#path10_1_);}
	.st7{clip-path:url(#SVGID_1_);}
	.st8{fill:url(#path10283_1_);}
	.st9{opacity:0.5;fill:#FF5F00;}
	.st10{fill:#EB001B;}
	.st11{fill:#F79E1B;}
	.st12{fill:#002D73;}
	.st13{fill:#2F9A41;}
	.st14{fill:#EE2A23;}
	.st15{fill:#FCE527;}
	.st16{fill:#222220;}
	.st17{fill:#FF0000;}
	.st18{opacity:0.7;}
	.st19{fill:url(#SVGID_2_);}
	.st20{clip-path:url(#SVGID_4_);}
	.st21{fill:#00985F;}
	.st22{fill:#141414;}
	.st23{fill:none;stroke:#000000;stroke-miterlimit:10;}
	.st24{opacity:0.5;fill:#fdd557;}
	.st25{fill:#000;}
	.st26{display:inline;fill:#5B57A2;}
	.st27{display:inline;fill:#D90751;}
	.st28{display:inline;fill:#FAB718;}
	.st29{display:inline;fill:#ED6F26;}
	.st30{display:inline;fill:#63B22F;}
	.st31{display:inline;fill:#1487C9;}
	.st32{display:inline;fill:#017F36;}
	.st33{display:inline;fill:#984995;}
	.cls-1 {
        fill: none;
        stroke: #000;
        stroke-width: 1px;
      }
      .cls-2 {
        fill-rule: evenodd;
        transform: translateY(1.5px);
      }
</style>
<g id="webmoney">
	<path class="st0" d="M10.4,1.1c1.5,0,2.9,0.3,4.2,0.9c0.2,0.1,0.4,0.2,0.6,0.3l-0.9,0.8L13,1.8l-2.2,2L9.5,2.4L5.3,6L8,8.9l-1,0.9
		l2.6,2.9l-1,0.9l3.7,4.1l2.2-2l1.9,2.1c-0.4,0.3-0.8,0.6-1.2,0.8c-1.4,0.8-3,1.2-4.7,1.2c-5.2,0-9.5-4.2-9.5-9.4
		C1,5.3,5.2,1.1,10.4,1.1L10.4,1.1z"/>
	<polygon class="st0" points="8.7,9.9 11,7.9 13,10.1 10.7,12.1 8.7,9.9 	"/>
	<polygon class="st0" points="10.3,13.8 12.5,11.7 14.6,14 12.3,16 10.3,13.8 	"/>
	<polygon class="st0" points="7.1,6.1 9.3,4.1 11.4,6.3 9.1,8.3 	"/>
	<polygon class="st0" points="11.2,5 12.9,3.5 14.4,5.2 12.7,6.7 11.2,5 	"/>
	<polygon class="st0" points="14.2,11.9 15.9,10.4 17.4,12.1 15.7,13.6 14.2,11.9 	"/>
	<polygon class="st0" points="15.7,15.3 17.4,13.8 18.9,15.4 17.2,17 	"/>
	<polygon class="st0" points="16.4,7.6 17.5,6.6 18.5,7.7 17.4,8.7 16.4,7.6 	"/>
	<polygon class="st0" points="14.9,4.3 16.1,3.2 17.1,4.4 16,5.4 14.9,4.3 	"/>
	<polygon class="st0" points="17.8,10.9 18.9,9.9 20,11 18.8,12 17.8,10.9 	"/>
	<polygon class="st0" points="12.8,8.4 14.5,6.9 16,8.5 14.3,10 12.8,8.4 	"/>
</g>
<g id="qiwi">
	<path class="st1" d="M16.3,13.9c0.3,0.1,0.4,0.6,0.4,0.8c0,0.4-0.1,0.5-0.2,0.5s-0.3-0.1-0.5-0.4c-0.2-0.3-0.2-0.6-0.2-0.8
		C16,13.9,16.1,13.8,16.3,13.9L16.3,13.9z"/>
	<path class="st1" d="M14.5,15.2c0.2,0,0.4,0.1,0.6,0.2c0.4,0.3,0.5,0.7,0.3,0.9c-0.1,0.1-0.3,0.2-0.5,0.2s-0.4-0.1-0.5-0.2
		c-0.3-0.3-0.4-0.7-0.2-1C14.2,15.3,14.4,15.2,14.5,15.2z"/>
	<path class="st1" d="M10.4,18.7c-4.9,0-8.8-4.5-7.8-9.6C3.2,6,5.7,3.5,8.8,2.9c5.1-1,9.6,2.9,9.6,7.8c0,1.5-0.4,2.9-1.1,4.1
		c0,0,0,0-0.1,0c-0.3-2-1.5-3-3.2-3.4c-0.2,0-0.2-0.1,0-0.1c0.5,0,1.3,0,1.7,0c0-0.2,0-0.4,0-0.6c0-3.3-3-5.9-6.4-5.2
		c-2,0.4-3.6,2-4,4C4.6,13,7.2,16,10.5,16h0.2c-0.1-0.5-0.1-1-0.1-1.4c0-0.3,0.1-0.4,0.2-0.1c0.7,1.3,1.8,2.4,3.8,2.9
		c1.7,0.4,3.3,0.8,5.1,3.1c0.2,0.2-0.1,0.4-0.3,0.2c-1.8-1.6-3.5-2.2-5-2.2C12.8,18.5,11.6,18.7,10.4,18.7L10.4,18.7z"/>
</g>
<g id="bitcoin">
	<g>
		<g>
			<path d="M15,9.8c1.1-0.5,1.7-1.5,1.6-3.1c-0.2-2.2-2.1-2.9-4.4-3.1l0-3h-1.8l0,2.9c-0.5,0-1,0-1.5,0l0-2.9L7,0.6l0,3
				c-0.4,0-0.8,0-1.2,0v0l-2.5,0l0,1.9c0,0,1.3,0,1.3,0c0.7,0,1,0.4,1.1,0.8l0,3.4v4.8c0,0.2-0.2,0.6-0.7,0.6c0,0-1.3,0-1.3,0
				l-0.4,2.2h2.4c0.4,0,0.9,0,1.3,0l0,3l1.8,0l0-3c0.5,0,1,0,1.5,0l0,3h1.8l0-3c3.1-0.2,5.2-0.9,5.5-3.8C17.8,11.2,16.8,10.2,15,9.8
				z M8.9,5.7c1,0,4.3-0.3,4.3,1.8c0,2.1-3.2,1.8-4.3,1.8V5.7z M8.9,15.2l0-4c1.2,0,5.1-0.4,5.1,2C14,15.4,10.1,15.2,8.9,15.2z"/>
		</g>
	</g>
</g>
<g id="paypal">
	<path id="path14499_1_" class="st2" d="M13.5,4.2c-0.6-0.7-1.8-1-3.2-1H6.1c-0.3,0-0.6,0.2-0.6,0.5L3.7,14.8c0,0.2,0.1,0.4,0.4,0.4
		h2.6l0.7-4.1l0,0.1c0-0.3,0.3-0.5,0.6-0.5h1.2c2.4,0,4.3-1,4.9-3.9c0-0.1,0-0.2,0-0.2c-0.1,0-0.1,0,0,0C14.3,5.6,14.1,4.8,13.5,4.2
		"/>
	<path id="path14535_1_" class="st3" d="M15.9,8.4L15.9,8.4c0,0.1,0,0.2,0,0.2c-0.6,2.9-2.5,3.9-4.9,3.9H9.7c-0.3,0-0.6,0.2-0.6,0.5
		l-0.6,4l-0.2,1.1c0,0.2,0.1,0.4,0.3,0.4h2.2c0.3,0,0.5-0.2,0.5-0.5l0-0.1l0.4-2.7l0-0.1c0-0.3,0.3-0.5,0.5-0.5h0.3
		c2.1,0,3.8-0.9,4.3-3.4c0.2-1,0.1-1.9-0.4-2.5C16.3,8.6,16.1,8.4,15.9,8.4"/>
</g>
<g id="money_yandex">
	<path class="st4" d="M16.6,7.7h-3.2V1.4c0-0.1-0.1-0.3-0.2-0.3c-0.1-0.1-0.3,0-0.4,0c-0.1,0-5.1,4.1-6.6,5.2
		C4.5,7.7,4.3,8.4,4.3,9.4v6.8C4.3,17.2,5,18,6,18h10.6c0.2,0,0.4-0.2,0.4-0.4V8.1C17,7.9,16.8,7.7,16.6,7.7z M9.9,7.8
		c0.4-0.4,0.9-0.6,1.2-0.3c0.3,0.2,0.2,0.8-0.1,1.2C10.6,9.1,10.1,9.3,9.8,9C9.5,8.8,9.5,8.3,9.9,7.8z M6.7,16.2l6.6-4.1
		c0.1-0.1,0.2-0.2,0.2-0.3V8.4h1.8v5c0,0.2-0.1,0.3-0.3,0.3L6.7,16.2z"/>
</g>
<g id="mir">
	<path id="path14" class="st5" d="M8.4,7.3v5.5H10c0,0,0.4,0,0.6-0.4c1.1-2.1,1.4-2.7,1.4-2.7h0.2v3.1h1.8V7.3h-1.6
		c0,0-0.4,0-0.6,0.4c-0.9,1.8-1.4,2.7-1.4,2.7h-0.2V7.3H8.4z"/>
	<path id="path16" class="st5" d="M1,12.8V7.3h1.8c0,0,0.5,0,0.8,0.8c0.7,2.1,0.8,2.4,0.8,2.4S4.5,10,5.1,8.1
		c0.3-0.8,0.8-0.8,0.8-0.8h1.8v5.5H5.9V9.9H5.7l-1,2.9H3.9L3,9.9H2.8v2.9H1z"/>
	<path id="path12" class="st5" d="M14.7,9.9v2.9h1.8v-1.6H18c0.9,0,1.6-0.6,1.8-1.4H14.7z"/>

		<linearGradient id="path10_1_" gradientUnits="userSpaceOnUse" x1="14.3878" y1="12.4948" x2="20" y2="12.4948" gradientTransform="matrix(1 0 0 -1 0 21)">
		<stop  offset="0" style="stop-color:#00B4E6"/>
		<stop  offset="1" style="stop-color:#088CCB"/>
	</linearGradient>
	<path id="path10" class="st6" d="M18,7.3h-3.6c0.2,1.2,1.4,2.4,2.7,2.4H20c0-0.1,0-0.3,0-0.4C20,8.2,19.1,7.3,18,7.3z"/>
</g>
<g id="visa_mastercard">
	<g id="layer1" transform="translate(-333.70157,-536.42431)">
		<g id="g10267" transform="matrix(4.9846856,0,0,-4.9846856,-1470.1185,1039.6264)">
			<g>
				<defs>
					<path id="SVGID_3_" d="M364,100.1c0-0.2,0.2-0.3,0.3-0.3c0.1-0.1,0.2-0.1,0.2-0.1c0-0.1-0.1-0.1-0.2-0.1c-0.2,0-0.2,0-0.3,0.1
						l-0.1-0.3c0.1,0,0.2-0.1,0.3-0.1c0.3,0,0.5,0.2,0.5,0.4c0,0.3-0.4,0.3-0.4,0.5c0,0,0,0.1,0.1,0.1c0,0,0.2,0,0.3-0.1l0.1,0.2
						c-0.1,0-0.2,0.1-0.3,0.1C364.2,100.5,364,100.4,364,100.1 M365.3,100.5c-0.1,0-0.1,0-0.1-0.1l-0.5-1.1l0.3,0l0.1,0.2h0.4l0-0.2
						h0.3l-0.2,1.2L365.3,100.5 M365.4,100.2l0.1-0.4h-0.3L365.4,100.2 M363.6,100.5l-0.3-1.2h0.3l0.3,1.2H363.6 M363.2,100.5
						l-0.3-0.8l-0.1,0.7c0,0.1-0.1,0.1-0.1,0.1h-0.5l0,0c0.1,0,0.2-0.1,0.3-0.1c0,0,0.1,0,0.1-0.1l0.2-0.9h0.3l0.5,1.2H363.2"/>
				</defs>
				<clipPath id="SVGID_1_">
					<use xlink:href="#SVGID_3_"  style="overflow:visible;"/>
				</clipPath>
				<g id="g10269" class="st7">
					<g id="g10275" transform="translate(351.611,96.896)">
						
							<linearGradient id="path10283_1_" gradientUnits="userSpaceOnUse" x1="10.2662" y1="-0.2287" x2="10.3039" y2="-0.2287" gradientTransform="matrix(419.708 154.5691 154.5691 -419.708 -4262.6763 -1680.3784)">
							<stop  offset="0" style="stop-color:#222357"/>
							<stop  offset="1" style="stop-color:#254AA5"/>
						</linearGradient>
						<path id="path10283" class="st8" d="M10.1,3.5l3.7,1.4l0.8-2.3l-3.7-1.4"/>
					</g>
				</g>
			</g>
		</g>
	</g>
	<path class="st9" d="M12.9,19.2H8.4v-8.1h4.5"/>
	<g transform="matrix(1.25 0 0 -1.25 1064.5 698.59)">
		<path class="st10" d="M-844.6,546.8c0,1.3,0.6,2.5,1.6,3.2c-0.7,0.6-1.6,0.9-2.5,0.9c-2.3,0-4.1-1.8-4.1-4.1
			c0-2.3,1.8-4.1,4.1-4.1c1,0,1.8,0.3,2.5,0.9C-844,544.3-844.6,545.4-844.6,546.8"/>
	</g>
	<g transform="matrix(1.25 0 0 -1.25 1103.8 698.59)">
		<path class="st11" d="M-867.8,546.8c0-2.3-1.8-4.1-4.1-4.1c-1,0-1.8,0.3-2.5,0.9c1,0.8,1.6,1.9,1.6,3.2s-0.6,2.5-1.6,3.2
			c0.7,0.6,1.6,0.9,2.5,0.9C-869.7,550.9-867.8,549-867.8,546.8"/>
	</g>
</g>
<g id="vtb24">
	<path class="st12" d="M14.9,10.9H4.3c0,0,0.3,1,0.7,1.5c0.1,0,9.4,0,9.4,0s1.8,1.4,2.7,3.9H7.2c-1.7-1.4-3-3.3-3.7-5.4
		c0.1-0.3,0.2-0.5,0.3-0.8h11.1c0.9-0.6,1.7-1.5,1.7-1.5h-12C4.8,8.3,4.9,8,5.1,7.8h12.2c0.3-0.4,1-1.5,1-1.5H6.4
		C6.7,6,7,5.7,7.3,5.5h11.3c0.3-0.7,0.5-1.5,0.5-1.5H6.9C4.6,5.6,2.8,8,2,10.9c0.8,2.8,2.5,5.3,4.9,7h12.2
		C19.1,17.8,18.9,14.1,14.9,10.9z"/>
</g>
<g id="online_sberbank">
	<path class="st13" d="M18.5,5.5c-0.2-0.3-0.4-0.6-0.6-0.8L7,10.9l-5.2-3c-0.1,0.3-0.2,0.7-0.2,1l5.5,3.2L18.5,5.5z"/>
	<path class="st13" d="M7,13.3L1.4,10c0,0.2-0.1,0.4-0.1,0.6c0,5.2,4.2,9.3,9.3,9.3s9.3-4.2,9.3-9.3c0-1.5-0.3-2.9-1-4.2L7,13.3z"/>
	<path class="st13" d="M17.1,3.9c-0.3-0.3-0.5-0.5-0.8-0.7L7,8.5L2.5,6C2.4,6.3,2.2,6.6,2.1,6.9L7,9.7L17.1,3.9z"/>
	<path class="st13" d="M15.4,2.6C15,2.3,14.7,2.2,14.3,2L7,6.2L3.8,4.4C3.5,4.6,3.3,4.9,3.1,5.1L7,7.4L15.4,2.6z"/>
</g>
<g id="alfabank">
	<path class="st14" d="M4.6,17.5c-0.1,0-0.2,0.1-0.2,0.2v2.1c0,0.1,0.1,0.2,0.2,0.2h11.7c0.1,0,0.2-0.1,0.2-0.2v-2.1
		c0-0.1-0.1-0.2-0.2-0.2H4.6"/>
	<path class="st14" d="M12.4,3.1c-0.3-0.9-0.7-1.8-2-1.8c-1.3,0-1.7,0.9-2,1.8C8.2,3.5,5,12.5,4.9,12.8c0,0.1,0,0.2,0.1,0.2
		c0.1,0,1.8,0.7,1.9,0.8c0.1,0,0.2,0,0.2-0.1c0-0.1,0.8-2.1,0.8-2.3h4.9c0.1,0.2,0.8,2.2,0.8,2.3c0,0.1,0.1,0.1,0.2,0.1
		c0.1,0,1.8-0.7,1.9-0.8c0.1,0,0.1-0.2,0.1-0.2C15.9,12.5,12.6,3.5,12.4,3.1z M8.8,9.2l1.7-5h0l1.7,5H8.8z"/>
</g>
<g id="tinkoff">
	<path class="st15" d="M13.2,12.5H7.6v2.1c0,0.9,0.6,1.4,1.5,1.4c0.8,0,1,0,1.3,0.3c0.2-0.2,0.4-0.3,0.7-0.3v0l0.2-0.5L11,15.1
		c-0.1,0-0.2,0.1-0.4,0c-0.2,0-0.4,0-0.6-0.1c0,0,0,0-0.1,0c0,0,0,0,0,0l0,0.1l-0.1,0.1l-0.1,0l-0.5-0.1l-0.1,0.1v0l0.1,0.1l0,0.1
		c0,0.1-0.1,0.2-0.2,0.3l-0.1,0.1l-0.1-0.2l-0.1-0.1c-0.1-0.1-0.1-0.3-0.1-0.4l0,0l-0.2,0.1l-0.1-0.1l0-0.1c-0.1-0.2,0-0.5,0.2-0.6
		l0.4-0.2l0.4,0.1c0,0,0-0.2,0-0.2h0l-0.2,0.1l-0.2-0.2c0,0,0-0.1,0-0.2c0,0,0,0,0,0l0.2-0.3l-0.6-0.7l0.9,0.4L9.5,13l0.1-0.1
		L9.7,13c0,0,0.1,0.1,0.1,0.1c0.2,0.1,0.7,0.4,0.7,0.8L10.3,14l0,0c0,0,0,0,0.1,0.1l0.6,0.1l0.1,0c0.1,0,0.2-0.1,0.3-0.1
		c0.1,0,0.2,0,0.3,0.1c0,0,0.1,0,0.1,0h0c0.3,0,0.5,0.2,0.6,0.4l0.1,0.1c0.1,0.2,0.3,0.4,0.3,0.4l0.1,0.1l-0.1,0.1
		c-0.1,0.1-0.2,0.2-0.3,0.2c0,0-0.1,0-0.1,0c0,0-0.1,0-0.1,0c0,0,0,0.1,0,0.1L12.2,16c0.6-0.1,1.1-0.7,1.1-1.4V12.5z"/>
	<path class="st15" d="M7.6,12.4H12c-0.2-0.2-0.2-0.5-0.2-0.7c-0.1,0-0.1-0.1-0.2-0.1c-0.2,0.1-0.7,0.5-0.8,0.6l0,0l-1.7-0.3h0
		c-0.1,0-0.1,0-0.2,0c0,0.1-0.1,0.1-0.2,0.1h0c-0.1,0-0.2-0.1-0.1-0.2v0c-0.2-0.2-0.3-0.4-0.3-0.7l0,0l0,0c0,0,0,0,0.1,0l-0.1,0
		c0,0-0.1-0.1-0.1-0.1c0,0,0-0.1,0.1-0.1c0,0,0,0,0,0l0.3,0l0-1l0.4-0.5l0.3,0.6l-0.3,1l0.3,0c0,0,0.1,0.1,0.1,0.1
		c0,0,0,0.1-0.1,0.1h0l-0.2,0v0c0,0,0.1,0.1,0.1,0.1l1.3,0l0.3-0.3c-0.3-0.1-0.4-0.3-0.5-0.6c-0.2-0.1-0.3-0.2-0.4-0.3
		C10,9.8,9.9,9.6,10,9.5C9.8,9.4,9.6,9.3,9.4,9.1h-2c0.1,0.2,0.1,0.5,0.2,0.7V12.4z"/>
	<path class="st16" d="M9.4,13.4C9.4,13.4,9.4,13.5,9.4,13.4C9.4,13.5,9.4,13.5,9.4,13.4c-0.1,0.1,0,0.1,0,0.1c0,0,0,0,0,0
		C9.5,13.6,9.5,13.5,9.4,13.4C9.5,13.5,9.5,13.4,9.4,13.4"/>
	<path class="st16" d="M13.2,17.3l-0.3-0.1l0.1-0.3l0.1-0.4c-0.4,0.2-0.9,0.4-1.4,0.5c-0.2,0.1-0.4,0.1-0.4,0.1v0.2
		c-0.3,0-0.6,0.1-0.9,0.1h0c-0.3,0-0.6,0-0.9-0.1v-0.2c0,0-0.2,0-0.4-0.1c-0.5-0.1-0.9-0.3-1.4-0.5l0.1,0.4L8,17.1l-0.3,0.1
		l-0.4,0.1c0.5,0.3,1,0.5,1.5,0.6l-0.1,0.3c0.6,0.2,1.2,0.3,1.8,0.3h0c0.6,0,1.2-0.1,1.8-0.3L12.1,18c0.5-0.2,1-0.4,1.5-0.6
		L13.2,17.3z M7.7,17.4l0.5-0.2l-0.2-0.5c0.3,0.2,0.7,0.3,1.1,0.4l-0.3,0.7C8.4,17.7,8.1,17.6,7.7,17.4 M10.4,18.5
		c-0.5,0-1-0.1-1.5-0.2l0.3-0.9c0.4,0.1,0.8,0.1,1.2,0.2h0c0.4,0,0.8-0.1,1.2-0.2l0.3,0.9C11.5,18.4,11,18.5,10.4,18.5 M12,17.9
		l-0.3-0.7c0.4-0.1,0.7-0.3,1.1-0.4l-0.2,0.5l0.5,0.2C12.8,17.6,12.4,17.7,12,17.9"/>
	<path class="st16" d="M10.4,4c0.5,0,1,0.1,1.5,0.5c0.1-0.3,0.2-0.7,0.4-1l-0.5,0.1l-0.3-0.6L11,3.2l-0.5-0.5L9.9,3.2L9.4,2.9
		L9.1,3.5L8.6,3.4c0.2,0.3,0.3,0.6,0.4,1C9.4,4.1,9.9,3.9,10.4,4 M9.1,3.7l0.1,0l0.1-0.1l0.2-0.4l0.3,0.2L10,3.4l0.1-0.1L10.4,3
		l0.4,0.4l0.1,0.1L11,3.4l0.3-0.2l0.2,0.4l0.1,0.1l0.1,0l0.1,0c-0.1,0.1-0.1,0.3-0.1,0.4c-0.8-0.4-1.8-0.4-2.7,0
		C9.1,3.9,9,3.8,9,3.7L9.1,3.7z"/>
	<path class="st16" d="M18.1,10.8c0.8,0,1.1-0.9,1.1-0.9l0.1-0.3h-0.3l0,0c-0.7,0-1.3-0.3-1.7-0.9l-0.1-0.1
		c-0.4-0.6-0.8-1.1-1.6-1.3c0,0,0.1,0,0.1-0.1c0.3-0.2,0.6-0.5,0.7-0.9c0-0.4-0.1-0.7-0.3-1L16,5.1l-0.2,0.4c0,0-0.3,0.6-0.8,0.6h0
		h-0.1c0-0.4-0.1-0.7-0.4-1c-0.3-0.3-0.7-0.5-1.2-0.5c-0.1,0-0.2,0-0.2,0l-0.4,0.1l0.2,0.3c0.2,0.2,0.3,0.6,0.1,0.9
		c-0.1,0.1-0.2,0.1-0.3,0.2c-0.2,0.1-0.6,0.3-0.6,0.7c0,0.3,0.2,0.5,0.6,0.7c1.1,0.7,1.7,1.4,2,2.1c0.4,1.2-0.1,1.9-0.7,2.2
		l-0.2,0.2L14,12c0.2,0.2,0.4,0.3,0.7,0.3c0.1,0,0.1,0,0.2,0c0.2,0,0.4,0,0.6-0.1c-0.1,0.1-0.1,0.2-0.2,0.3
		c-0.3,0.4-0.8,0.6-1.3,0.5h-0.2l0,0.2c0,0.3,0.1,0.6,0.3,0.8c0.1,0.1,0.1,0.1,0.2,0.1c-0.3,0.3-0.5,0.8-0.5,1.3
		c0,0.3-0.1,0.5-0.2,0.8l-0.2,0.4h0.4c0.7,0,1.2-0.2,1.6-0.6c0.2-0.2,0.3-0.4,0.4-0.7c0.1,0.1,0.3,0.2,0.5,0.2c0.1,0,0.2,0,0.2,0
		c0.1,0,0.3,0,0.4,0l0.3-0.1l-0.1-0.2c-0.1-0.4-0.1-0.8,0-1.2c0.1-0.3,0.1-0.5,0.2-0.8c0.2,0.1,0.4,0.2,0.7,0.2c0.4,0,0.7-0.2,1-0.5
		l0.1-0.2l-0.2-0.1c-0.8-0.3-1-1.2-1-1.7C17.9,10.8,18,10.8,18.1,10.8L18.1,10.8z M18.8,12.7c-0.2,0.3-0.5,0.4-0.8,0.4l0,0
		c-0.3,0-0.7-0.1-0.9-0.4c0,0.4-0.1,0.8-0.2,1.2c-0.2,0.5-0.2,0.9,0,1.4c-0.1,0-0.2,0-0.3,0c-0.1,0-0.1,0-0.2,0
		c-0.3-0.1-0.6-0.3-0.7-0.6c0,0,0,1.6-1.8,1.6h0c0.1-0.3,0.2-0.6,0.2-0.9c0.1-1.2,0.9-1.4,0.9-1.4c-0.2,0-0.4-0.1-0.6-0.2
		c-0.2-0.1-0.3-0.4-0.3-0.6c0.5,0,1.1-0.2,1.4-0.6c0.2-0.2,0.4-0.5,0.4-0.9c-0.3,0.2-0.7,0.3-1,0.3c-0.1,0-0.1,0-0.2,0
		c-0.2,0-0.4-0.1-0.6-0.2c0.7-0.5,1.2-1.3,0.8-2.5c-0.4-1-1.2-1.7-2.1-2.2c-0.3-0.2-0.4-0.4-0.4-0.6c0-0.4,0.6-0.4,0.8-0.7
		c0.3-0.3,0.1-0.8-0.1-1.1c0.1,0,0.1,0,0.2,0c0.4,0,0.8,0.2,1,0.4c0.3,0.3,0.4,0.7,0.3,1l0.1,0c0.1,0,0.2,0,0.2,0H15
		c0.7,0,1-0.7,1-0.7s0.7,0.9-0.3,1.6c-0.2,0.1-0.3,0.2-0.2,0.4l0,0.1l0.1,0c0.8,0.2,1.2,0.7,1.6,1.4c0.5,0.6,1.1,0.9,1.9,0.9h0
		c0,0-0.2,0.7-0.9,0.7h0c-0.2,0-0.3,0-0.5-0.1C17.6,10.5,17.5,12.2,18.8,12.7"/>
	<path class="st16" d="M16.7,7.5c0.3,0.1,0.5,0.4,0.7,0.6c0.1,0.2,0.3,0.4,0.5,0.5c0.1,0,0.2,0,0.3,0c0.4,0,0.7-0.2,0.8-0.5l0.1-0.3
		l-0.3,0c-0.4-0.1-0.7-0.2-0.9-0.5c-0.2-0.2-0.4-0.3-0.7-0.3c-0.2,0-0.4,0.1-0.6,0.2l-0.3,0.2L16.7,7.5z M17.2,7.1
		c0.2,0,0.4,0.1,0.5,0.2C18,7.7,18.4,7.9,18.8,8c-0.1,0.2-0.4,0.4-0.6,0.4c-0.1,0-0.1,0-0.2,0c-0.4-0.1-0.5-0.7-1.2-1
		C16.9,7.2,17,7.1,17.2,7.1"/>
	<path class="st16" d="M16.8,10.5L16.8,10.5c-0.2-1.5-1.3-2.6-2.5-3.3C14.1,7.1,14,7,13.9,7c0.5,0.1,1,0,1.5-0.3c0,0-0.7,0.5-2.2,0
		c0.4,0.3,1.2,0.6,1.9,1.2c1.8,1.6,0.5,3.1,0.5,3.1c0.5-0.5,0.7-1.3,0.5-2c0.4,0.6,0.6,1.4,0.5,2.1c0,1.2-0.7,2.3-1.4,3.1
		c-0.2,0.3-0.4,0.6-0.4,0.9c0.1-0.3,0.3-0.6,0.5-0.9c0.8-0.9,1.4-1.8,1.5-3.1c0.1,0.2,0.4,0.9,0.9,1.2C17.7,12.4,17.1,12,16.8,10.5"
		/>
	<path class="st16" d="M7.2,16.2C7,15.9,7,15.7,7,15.4c0-0.5-0.2-0.9-0.5-1.3c0.1,0,0.1-0.1,0.2-0.1C6.8,13.8,7,13.5,7,13.2L7,13
		H6.7c-0.5,0-0.9-0.2-1.3-0.5c-0.1-0.1-0.1-0.2-0.2-0.3c0.2,0.1,0.4,0.1,0.6,0.1c0.1,0,0.1,0,0.2,0c0.3,0,0.5-0.1,0.7-0.3l0.2-0.2
		l-0.2-0.2c-0.6-0.4-1.1-1-0.7-2.2c0.3-0.8,0.9-1.5,2-2.1c0.4-0.2,0.6-0.5,0.6-0.7c0-0.4-0.3-0.5-0.6-0.7C8,5.9,7.9,5.8,7.8,5.8
		c-0.2-0.2,0-0.6,0.1-0.9l0.2-0.3L7.8,4.6c-0.1,0-0.2,0-0.2,0C7.1,4.5,6.7,4.7,6.4,5C6.1,5.3,6,5.6,6,6H5.9h0C5.3,6,5.1,5.5,5.1,5.4
		L4.9,5.1L4.7,5.4C4.5,5.7,4.4,6,4.4,6.4c0.1,0.4,0.3,0.7,0.7,0.9c0,0,0.1,0,0.1,0.1C4.4,7.6,4,8.1,3.6,8.7L3.5,8.8
		c-0.4,0.5-1,0.8-1.7,0.9H1.5l0.1,0.3c0,0,0.3,0.9,1.1,0.9h0c0.1,0,0.2,0,0.2,0c0,0.5-0.2,1.3-1,1.7l-0.2,0.1l0.1,0.2
		c0.2,0.3,0.6,0.5,1,0.5c0.2,0,0.5-0.1,0.7-0.2c0,0.3,0.1,0.5,0.2,0.8c0.1,0.4,0.1,0.8,0,1.2l-0.1,0.2l0.3,0.1c0.1,0,0.2,0,0.4,0
		c0.1,0,0.2,0,0.2,0c0.2,0,0.3-0.1,0.5-0.2c0.1,0.3,0.2,0.5,0.4,0.7c0.4,0.4,0.9,0.6,1.6,0.6h0.4L7.2,16.2z M7,16.3
		c-1.9,0-1.8-1.6-1.8-1.6C5,15,4.8,15.2,4.5,15.3c-0.1,0-0.1,0-0.2,0c-0.1,0-0.2,0-0.3,0c0.2-0.5,0.2-0.9,0-1.4
		c-0.1-0.4-0.2-0.8-0.2-1.2c-0.2,0.3-0.5,0.4-0.9,0.4l0,0c-0.3,0-0.6-0.1-0.8-0.4c1.3-0.5,1.1-2.2,1.1-2.2c-0.1,0.1-0.3,0.1-0.5,0.1
		h0c-0.7,0-0.9-0.7-0.9-0.7h0c0.7,0,1.4-0.4,1.9-1c0.5-0.6,0.9-1.1,1.6-1.4l0.1,0l0-0.1c0-0.1-0.1-0.2-0.2-0.4
		C4.1,6.4,4.9,5.5,4.9,5.5s0.3,0.7,1,0.7h0c0.1,0,0.2,0,0.2,0l0.1,0c-0.1-0.4,0-0.8,0.3-1c0.3-0.3,0.6-0.4,1-0.4c0.1,0,0.1,0,0.2,0
		C7.5,5.1,7.4,5.6,7.6,5.9c0.2,0.3,0.8,0.3,0.8,0.7C8.5,6.8,8.3,7,8,7.2C7.1,7.7,6.3,8.4,5.9,9.4c-0.4,1.2,0.1,2,0.8,2.5
		c-0.2,0.1-0.3,0.2-0.6,0.2c-0.1,0-0.1,0-0.2,0c-0.4,0-0.7-0.1-1-0.3c0.1,0.3,0.2,0.6,0.4,0.9c0.4,0.4,0.9,0.6,1.4,0.6
		c0,0.2-0.1,0.4-0.3,0.6C6.3,14,6.1,14,5.8,14.1c0,0,0.8,0.2,0.9,1.4C6.7,15.7,6.8,16,7,16.3L7,16.3z"/>
	<path class="st16" d="M2.8,8.6c0.1,0,0.2,0,0.3,0c0.2-0.1,0.4-0.3,0.5-0.5C3.7,7.8,4,7.6,4.2,7.5l0.3-0.2L4.3,7.1
		C4.1,7,3.9,6.9,3.7,6.9C3.4,6.9,3.2,7,3,7.2C2.8,7.5,2.5,7.7,2.1,7.7l-0.3,0l0.1,0.3C2.1,8.4,2.4,8.6,2.8,8.6 M3.2,7.4
		c0.1-0.1,0.3-0.2,0.5-0.2c0.2,0,0.3,0,0.4,0.1C3.5,7.6,3.3,8.2,3,8.3c-0.1,0-0.1,0-0.2,0C2.5,8.4,2.3,8.2,2.1,8
		C2.5,7.9,2.9,7.7,3.2,7.4"/>
	<path class="st16" d="M4.2,11.2c0-0.7,0.1-1.5,0.5-2.1c-0.2,0.7-0.1,1.5,0.5,2c0,0-1.3-1.6,0.5-3.1c0.7-0.6,1.5-1,1.9-1.2
		c-1.5,0.5-2.2,0-2.2,0C5.9,7,6.4,7.1,7,7C6.9,7,6.7,7.1,6.6,7.2c-1.2,0.7-2.4,1.8-2.6,3.3v0c-0.3,1.5-0.9,1.9-0.9,1.9
		c0.5-0.3,0.8-0.9,0.9-1.2c0.1,1.3,0.7,2.2,1.5,3.1c0.2,0.3,0.4,0.6,0.5,0.9c-0.1-0.3-0.2-0.7-0.4-0.9C5,13.5,4.3,12.4,4.2,11.2"/>
	<path class="st16" d="M10,8.1v0.3c0.1-0.1,0.2-0.1,0.3-0.1v0.4c0,0.1,0,0.2-0.1,0.3h0.4c-0.1-0.1-0.1-0.2-0.1-0.3V8.3
		c0.1,0,0.2,0,0.3,0.1V8.1H10L10,8.1z"/>
	<path class="st16" d="M9.8,6.3c0.1,0.1,0.1,0.1,0.2,0.1l0.1,0V6.2L9.6,5.9C9.6,6.1,9.7,6.2,9.8,6.3"/>
	<path class="st16" d="M11.1,6.3c0.1-0.1,0.2-0.2,0.2-0.3l-0.5,0.2v0.3l0.1,0C10.9,6.4,11,6.3,11.1,6.3"/>
	<path class="st16" d="M12,5.1c0-0.4-0.7-0.8-1.5-0.8l0,0c-0.8,0-1.5,0.4-1.5,0.8l0,0.1l0.3,1.9L8.9,7.3L8.1,7.8l0,0
		c0,0-0.2,0.1-0.3,0.2C7.5,8.2,7.4,8.5,7.6,8.6c0-0.3,0.3-0.6,0.6-0.5c0.3,0,0.5,0.1,0.7,0.4C9,8.5,9,8.5,9,8.6
		c0,0.1,0.1,0.1,0.1,0.2H7c0.2,0.3,0.3,0.7,0.3,1v4.8c0,1.2,0.9,1.7,1.9,1.7c0.7,0,0.8,0,1.3,0.4c0.4-0.4,0.5-0.4,1.3-0.4
		c1,0,1.9-0.6,1.9-1.7V9.8c0-0.4,0.1-0.7,0.3-1h-2.2c0-0.1,0.1-0.1,0.1-0.2c0-0.1,0.1-0.1,0.1-0.2c0.2-0.2,0.4-0.4,0.7-0.4
		c0.3,0,0.6,0.2,0.6,0.5c0.2-0.1,0.1-0.5-0.2-0.7c-0.1-0.1-0.3-0.2-0.3-0.2l0,0L12,7.3l-0.3-0.2L12,5.1L12,5.1z M9.2,5.3l1.1,0.4
		v1.8L9.5,7.1L9.2,5.3z M9.4,9.1C9.6,9.3,9.8,9.4,10,9.5c0,0.2,0,0.3,0,0.5c0.1,0.2,0.2,0.3,0.4,0.3c0,0.3,0.2,0.5,0.5,0.6l-0.3,0.3
		l-1.3,0c0,0-0.1-0.1-0.1-0.1v0l0.2,0h0c0,0,0.1,0,0.1-0.1c0,0,0-0.1-0.1-0.1l-0.3,0l0.3-1L9.1,9.3L8.7,9.8l0,1l-0.3-0.1
		c0,0-0.1,0-0.1,0.1c0,0,0,0,0,0c0,0,0,0.1,0.1,0.1l0.1,0c0,0-0.1,0-0.1,0l0,0v0c-0.1,0.3,0,0.5,0.3,0.7v0c0,0.1,0,0.2,0.1,0.2h0
		c0.1,0,0.1-0.1,0.2-0.1c0.1,0,0.1,0,0.2,0h0l1.7,0.3l0,0c0.1-0.1,0.7-0.5,0.8-0.6c0,0,0.1,0.1,0.2,0.1c-0.1,0.2,0,0.5,0.2,0.7H7.6
		V9.8c0-0.2-0.1-0.5-0.2-0.7L9.4,9.1z M11.5,11.4c-0.2,0.1-0.6,0.5-0.8,0.6l-1.6-0.3v0c0-0.1,0.1-0.2,0.1-0.3l1.3,0l0,0
		c0,0,0.4-0.4,0.6-0.6c0.1,0.1,0.1,0.1,0.2,0.2C11.4,11.1,11.4,11.3,11.5,11.4 M9,11.2c0,0.1,0.1,0.1,0.1,0.2c0,0.1,0,0.2,0,0.3
		c0,0,0,0,0,0.1v0c-0.1,0-0.2,0-0.3,0c-0.2-0.1-0.3-0.3-0.3-0.5C8.6,11.1,8.7,11,8.8,11C8.9,11,8.9,11.1,9,11.2 M8.8,10.8l0-1
		l0.2-0.2l0.1,0.3l-0.3,1L8.8,10.8z M11.6,16h-0.2l0.2-0.6c0-0.1-0.1-0.2-0.2-0.3c0.1,0.1,0.3,0.2,0.4,0.2
		C11.8,15.4,11.6,16,11.6,16 M12.1,15.4L12,16c-0.1,0-0.2,0-0.2,0l0.1-0.6c0-0.2-0.4-0.2-0.7-0.6C11.1,15,10.9,15,10.7,15
		c-0.2,0-0.4,0-0.5-0.1c0,0-0.1,0-0.1,0c-0.1,0-0.1,0-0.2,0.1l0,0.1l-0.7-0.2L9,15.2c0,0,0,0.1,0,0.1l0,0c0,0.1-0.1,0.2-0.2,0.2
		l-0.1-0.1c-0.1-0.1-0.1-0.3,0-0.4l0.3-0.4l0.6,0.1l-0.1-0.2c-0.1-0.3,0.1-0.6,0.1-0.8c0,0.1-0.1,0.1-0.1,0.1c-0.1,0-0.1,0-0.2,0
		c0,0,0,0,0,0l-0.2,0.1L9,13.8c0,0,0-0.1,0-0.1l0.3-0.3L9,13l0.5,0.2l0.1-0.2c0,0,0,0.1,0,0.1c0.3,0.1,0.6,0.4,0.6,0.7
		c0,0,0,0,0,0.1v0c0,0.1,0.1,0.1,0.2,0.1l0.6,0.1l0,0c0.1,0,0.3-0.1,0.4-0.1c0.1,0,0.2,0,0.3,0.1c0,0,0.1,0,0.1,0h0
		c0.3,0,0.4,0.3,0.6,0.5c0.1,0.2,0.3,0.4,0.3,0.4c0,0.1-0.1,0.1-0.2,0.1c0,0-0.1,0-0.1,0c-0.3-0.1-0.3-0.7-0.5-0.7h0
		c0,0-0.1,0-0.1,0c0.1,0.2,0,0.3,0.1,0.5c0.1,0.1,0.1,0.2,0.2,0.3C12.2,15.2,12.2,15.3,12.1,15.4 M8.7,14.8L8.7,14.8
		c0,0.1-0.2,0.2-0.2,0.2l0-0.1c-0.1-0.1,0-0.3,0.1-0.4L9,14.3l0.4,0.1c0,0.1,0,0.1,0.1,0.2L9,14.5l-0.2,0.2
		C8.7,14.7,8.7,14.7,8.7,14.8 M12.2,16l0.1-0.6c0,0,0-0.1,0-0.1c0,0,0.1,0,0.1,0c0,0,0.1,0,0.1,0c0.1,0,0.2-0.1,0.3-0.2l0.1-0.1
		L12.9,15c0,0-0.2-0.2-0.3-0.4l-0.1-0.1c-0.1-0.2-0.4-0.4-0.6-0.4h0c0,0-0.1,0-0.1,0c-0.1,0-0.2-0.1-0.3-0.1c-0.1,0-0.2,0-0.3,0.1
		l-0.1,0L10.4,14c0,0,0,0-0.1-0.1l0,0l0.1-0.1c0-0.4-0.5-0.7-0.7-0.8c0,0,0-0.1-0.1-0.1l-0.1-0.1L9.5,13L9.4,13l-0.9-0.4l0.6,0.7
		l-0.2,0.3c0,0,0,0.1,0,0.2c0,0,0,0,0,0L9.1,14L9.4,14h0c0,0,0,0.2,0,0.2l-0.4-0.1l-0.4,0.2c-0.2,0.1-0.3,0.4-0.2,0.6l0,0.1l0.1,0.1
		l0.2-0.1l0,0c-0.1,0.2,0,0.3,0.1,0.4l0.1,0.1l0.1,0.2L9,15.7c0.1-0.1,0.2-0.2,0.2-0.3l0-0.1l-0.1-0.1v0l0.1-0.1l0.5,0.1l0.1,0
		l0.1-0.1l0-0.1c0,0,0,0,0,0h0.1c0.2,0,0.4,0.1,0.6,0.1c0.1,0,0.3,0,0.4,0l0.3,0.4L11.1,16v0c-0.3,0-0.5,0.1-0.7,0.3
		C10.2,16.1,10,16,9.2,16c-0.9,0-1.5-0.5-1.5-1.4v-2.1h5.6v2.1C13.3,15.3,12.8,15.8,12.2,16 M13.4,9.1c-0.1,0.2-0.1,0.5-0.2,0.7v1.6
		c-0.2,0-0.4-0.2-0.4-0.4v-0.1h-0.1c-0.1,0-0.2-0.1-0.3-0.2c-0.1-0.1-0.2-0.3-0.2-0.4c-0.1,0.2-0.1,0.4,0,0.5
		c0.1,0.1,0.2,0.2,0.4,0.2c0,0.3,0.3,0.5,0.5,0.5v0.8h-1c-0.3-0.1-0.4-0.4-0.2-0.7l0-0.1l-0.1,0c-0.3-0.1-0.4-0.4-0.3-0.7l0-0.1
		l-0.1,0c-0.2-0.1-0.4-0.4-0.3-0.7c-0.1,0.1-0.2,0.3-0.1,0.5c0,0.1-0.1,0.1-0.2,0.2c-0.2-0.1-0.4-0.3-0.4-0.5v-0.1l-0.1,0
		c-0.1,0-0.3-0.1-0.3-0.3c0-0.1-0.1-0.2,0-0.3c0,0,0.1,0,0.1,0c0,0,0.1,0,0.1,0l0,0c0.4,0,0.7-0.2,1-0.4L13.4,9.1z M11.9,7.5
		l0.4,0.2l0,0l0.1,0.1C12.2,7.9,12,8,11.8,8.1l0,0c0,0-0.1,0.1-0.1,0.1l0,0c0,0-0.1,0.1-0.1,0.1l0,0c0,0-0.1,0.1-0.1,0.1
		c-0.2,0.4-0.6,0.7-1.1,0.7C10,9.3,9.6,9,9.3,8.6c0-0.1-0.1-0.1-0.1-0.1l0,0L9.2,8.3l0,0c0,0-0.1-0.1-0.1-0.1l0,0
		C8.9,8,8.7,7.9,8.5,7.8l0.1-0.1l0,0L9,7.5l0.4-0.2l1,0.6l0,0l1.1-0.6L11.9,7.5z M11.4,7.1l-0.8,0.4V5.7l1.1-0.4L11.4,7.1z
		 M10.4,5.5L9.2,5c0.1-0.2,0.6-0.5,1.2-0.5s1.1,0.2,1.2,0.5L10.4,5.5z"/>
</g>
<g id="mts">
	<path class="st17" d="M10.6,3.4C13.2,3.4,16,8,16,12c0,3.2-1.9,5.8-5.4,5.8c-3.5,0-5.4-2.7-5.4-5.8C5.3,8,8.1,3.4,10.6,3.4"/>
</g>
	<g id="beeline" class="st0">
	<circle class="st24" cx="10.5" cy="10.5" r="8.5"/>
		<g class="st25">
		<g>
			<path d="M10.5,2C7.9,2,5.6,3.2,4,5H17C15.4,3.2,13.1,2,10.5,2z M10.5,19c2.6,0,5-1.2,6.5-3.1H4C5.5,17.8,7.9,19,10.5,19z
				 M18.8,8.6H2.2C2.1,9.2,2,9.9,2,10.5c0,0.6,0.1,1.2,0.2,1.8h16.6c0.1-0.6,0.2-1.2,0.2-1.8C19,9.9,18.9,9.2,18.8,8.6z"/>
		</g>
	</g>
</g>
<g id="megafon">
	<path id="path7812" class="st21" d="M8.9,9C8.3,9,7.8,8.5,7.8,7.9c0-0.6,0.5-1.1,1.1-1.1c0.6,0,1.1,0.5,1.1,1.1
		C9.9,8.5,9.5,9,8.9,9 M10.5,2C5.8,2,2,5.8,2,10.5c0,4.1,2.9,7.5,6.7,8.3v-7.6l0,0c0-0.4,0.3-0.7,0.7-0.7v0h0.4h0.7
		c0,0,0.1,0,0.1-0.1L10.5,2 M16.4,15.1c-0.6,0-1.1-0.5-1.1-1.1c0-0.6,0.5-1.1,1.1-1.1c0.6,0,1.1,0.5,1.1,1.1
		C17.4,14.7,16.9,15.1,16.4,15.1 M13.9,15.1c-0.6,0-1.1-0.5-1.1-1.1c0-0.6,0.5-1.1,1.1-1.1c0.6,0,1.1,0.5,1.1,1.1
		C14.9,14.7,14.5,15.1,13.9,15.1 M11.4,15.1c-0.6,0-1.1-0.5-1.1-1.1c0-0.6,0.5-1.1,1.1-1.1c0.6,0,1.1,0.5,1.1,1.1
		C12.4,14.7,12,15.1,11.4,15.1 M11.6,2.1v8.4v0.3v0l0,0c0,0.4-0.3,0.7-0.7,0.7h-0.3H9.8c-0.1,0-0.1,0-0.1,0.1V19c0.3,0,0.5,0,0.8,0
		c4.7,0,8.5-3.8,8.5-8.5C19,6.2,15.8,2.6,11.6,2.1"/>
</g>
<g id="tele2">
	<polyline class="st22" points="3,5.8 3,8.4 10,7.6 10,4.8 3,5.8 	"/>
	<polyline class="st22" points="5.2,8.6 5.2,17.4 7.8,17.4 7.8,8.3 5.2,8.6 	"/>
	<path class="st22" d="M17.8,5.2c-0.8-0.8-2-1.1-3.3-0.9v2.8c0.5,0,1,0.2,1.2,0.6c0.3,0.6,0,1.6-0.8,2.4c-1.1,1.4-4.2,4.1-4.2,4.1
		l4.4-0.1c2.7-2.6,3.6-4.2,3.8-6.2C18.9,6.9,18.6,5.9,17.8,5.2"/>
	<polyline class="st22" points="19,17.5 19,14.5 10.1,14.7 	"/>
	<polyline class="st22" points="10.1,14.7 10.1,17.5 19,17.5 	"/>
	<path class="st22" d="M13.9,4.4c-2.6,0.5-3.8,2.4-3.7,5.5L13,9.7c-0.1-1.7,0.4-2.2,0.9-2.4L13.9,4.4"/>
</g>
<g id="terminal_oplati">
	<rect x="5.5" y="2.5" class="st23" width="10" height="17"/>
	<rect x="7" y="4" width="7" height="6.5"/>
	<rect x="11.5" y="11" width="2.5" height="1.5"/>
</g>
<g id="main_icon">
	<path d="M9,17H8c-0.5,0-1-0.4-1-1v-4c0-0.5,0.4-1,1-1h1c0.5,0,1,0.4,1,1v4C10,16.6,9.6,17,9,17z"/>
	<path d="M13,17h-1c-0.5,0-1-0.4-1-1v-4c0-0.5,0.4-1,1-1h1c0.5,0,1,0.4,1,1v4C14,16.6,13.6,17,13,17z"/>
	<path d="M5,17H4c-0.5,0-1-0.4-1-1V8c0-0.5,0.4-1,1-1h1c0.5,0,1,0.4,1,1v8C6,16.6,5.6,17,5,17z"/>
	<path d="M17,17h-1c-0.5,0-1-0.4-1-1V8c0-0.5,0.4-1,1-1h1c0.5,0,1,0.4,1,1v8C18,16.6,17.6,17,17,17z"/>
	<path d="M10.5,3C8.6,3,7,4.6,7,6.5S8.6,10,10.5,10S14,8.4,14,6.5S12.4,3,10.5,3z M10.7,8.2v0.6h-0.5V8.2C9.9,8.2,9.5,8.1,9.3,8
		l0.2-0.6c0.2,0.1,0.5,0.2,0.9,0.2c0.3,0,0.5-0.1,0.5-0.3c0-0.2-0.2-0.3-0.6-0.5c-0.6-0.2-1-0.5-1-1c0-0.5,0.3-0.8,0.9-1V4.3h0.5
		v0.5c0.4,0,0.6,0.1,0.8,0.2l-0.2,0.6c-0.1-0.1-0.4-0.2-0.8-0.2c-0.4,0-0.5,0.2-0.5,0.3c0,0.2,0.2,0.3,0.6,0.5
		c0.6,0.2,0.9,0.5,0.9,1C11.7,7.6,11.4,8,10.7,8.2z"/>
</g>
<g id="spb">
	<path class="st26" d="M2.5,5.1l2.3,4.1v2.5l-2.3,4.1L2.5,5.1z"/>
		<path class="st27" d="M11.4,7.8l2.2-1.3l4.4,0l-6.6,4C11.4,10.5,11.4,7.8,11.4,7.8z"/>
		<path class="st28" d="M11.4,5.1l0,5.4L9.1,9.1V1L11.4,5.1L11.4,5.1z"/>
		<path class="st29" d="M17.9,6.4l-4.4,0l-2.2-1.3L9.1,1L17.9,6.4L17.9,6.4z"/>
		<path class="st30" d="M11.4,15.9v-2.6l-2.3-1.4l0,8.1L11.4,15.9z"/>
		<path class="st31" d="M13.5,14.6L4.8,9.2L2.5,5.1l15.4,9.4L13.5,14.6L13.5,14.6z"/>
		<path class="st32" d="M9.1,20l2.3-4.1l2.2-1.3l4.4,0L9.1,20z"/>
		<path class="st33" d="M2.5,15.9l6.5-4l-2.2-1.3l-2,1.3L2.5,15.9z"/>
</g>
	<g transform="scale(0.021 0.021)" id="unionpay"><path d="M524.2,402.9"/>
		<path d="M679.4,417.5c8.1-4,14.5-12.2,16.6-22c2.4-10.7-1-19-9.2-22.2c-0.5,0-21.4-1.8-21.4-1.8l-4-0.4l-0.2,1.7l-0.2,2.3c0-0.1-10.1,43.9-10.1,43.9l-0.4,2.2h5.5C664.4,421.1,672.6,420.9,679.4,417.5z"/>
		<path d="M684.6,554.2l-7.7,25.2c0,0,8.5-3.8,13.2-5.1c4.8-1.2,11.9-1.7,11.9-1.7l5.5-18.3H684.6L684.6,554.2z"/>
		<path d="M751.2,480.4c3.5,0,9.4-2.2,11.9-5.8c1.4-1.8,2.7-4.7,3.8-7.6c1-4,2-8,2.9-12.1c0.7-2.9,1.3-5.6,1.8-8.1c0.6-9.7-2.7-15.3-8.8-15.3c-9.8,0-13.6,12-16.8,25.9c-1.1,5-2,9.6-2,14C744.2,480.4,750.2,480.4,751.2,480.4z"/>
		<path d="M443.7,479c3.5,0,6.6-2.3,9.2-6c3.8-5,6.6-16.9,7.2-20c3.3-14.4,2.9-23.3-4.8-23.3c-9.7,0-13.6,12-16.8,26.3c-1.2,4.9-2.1,9.5-2,13.9C436.7,479,442.7,479,443.7,479z"/>
		<path d="M654.7,653h23l6.7-22.1h-23L654.7,653z"/>
		<path d="M665.3,618.1c0,0,8.7-4.5,13.4-5.9c4.7-1.1,11.9-2,11.9-2l5.6-18.3h-23.1L665.3,618.1z"/>
		<path d="M583.2,593.5l2.9-8.8h-34l-2.1,9h27.3C581.9,593.1,582.9,593.8,583.2,593.5z"/>
		<path d="M595.4,554.9H559l-3.4,14.6c3.3-1.4,7.4-2.7,12-3.5c3.4-0.7,24.6-0.5,24.6-0.5L595.4,554.9z"/>
		<path d="M538.8,593.6L538.8,593.6l0.4-1.2L538.8,593.6z"/>
		<path d="M533.8,611.3l-12,39.5c-1.1,3.9-1.7,5.8-0.9,6.8c0.4,0.7,1.3,1.4,2.5,1.8l11.2-48.2L533.8,611.3L533.8,611.3z"/>
		<path d="M940.9,194.4H729.1c-2.5-0.5-5.4-0.8-8.8-0.8H439.4c-2.4,0-4.7,0.1-7.1,0.4H201.7c-34.2,0-68.3,27.9-76.3,62.1L11.7,744.4c-8,34.1,13.2,62,47.3,62h244.4c2.4,0,4.7-0.1,7.1-0.4h240.7c-34.2,0-55.4-27.8-47.4-62l15-64.4h-2.5c-6.6,0-11.5-0.1-14.9-0.4c-3.2-0.3-6.6,0-8.9-1.7c-2-1.7-5-3.9-4.8-6.3c0.2-2.2,1.1-5.7,2.5-10.5l38.1-126.4h24.3l8.8-37.6c-4.4,0.1-9,0.2-16.2,0.6l-0.5-1c1.2-5.5,2.6-10.9,3.9-16.4l1.7-7.4c2.7-11.6,5.2-25.2,5.5-29.3c0.2-2.5,1.1-8.6-6-8.6c-3,0-6.1,1.4-9.3,2.8c-1.7,6.2-5.3,23.6-7,31.5c-3.5,16.7-3.7,18.6-5.3,26.8l-1.1,1.1c-12.7-0.2-17-0.2-31.5,0.5l-0.7-1.2c2.5-9.9,4.8-20,7.2-29.8c6.1-26.9,7.5-37.2,9.2-50.9l1.1-0.8c14.2-1.9,17.7-2.4,33-5.6l1.2,1.5l-2.3,8.6c2.5-1.5,5.1-3.1,7.7-4.5c7.2-3.5,15.4-4.6,19.8-4.6c3.1,0,6.3,0.4,9.1,1.6l36.3-155.8c7.2-30.8,35.6-56.5,66.1-61.3h1.8h9.3c-30.5,4.8-58.9,30.5-66.1,61.3l-38.6,165.9c1.8,6.6-0.1,15.1-3.6,30.3l-1.9,8.6c-4,18.7-4.6,22.2-6.8,35l-1.5,1.1c-1.3,0-2.5,0-3.6,0l-10.2,43.9c1.3-0.7,2.6-1.4,3.8-1.9c6-2.2,19.6-4.3,19.6-4.3l44-0.2l-15,49.9c-2.5,8.6-5.4,14.1-7.3,16.6c-1.6,2.6-3.6,4.7-7.4,6.8c-3.8,2-7.1,3.2-10.3,3.5c-2.9,0.2-7.4,0.3-13.5,0.4h-30.4l-11,47.5l8.8-0.9l-6.4,21.7H530L515,744c-8,34.1,13.1,62,47.4,62h244.2c0.7,0,1.5,0,2.2-0.1c30.4-4.9,58.7-30.5,65.8-61.1l113.8-488.3C996.3,222.3,975.1,194.4,940.9,194.4z M213.3,487.1c-10.9,6.7-27,10.3-44.2,10.3c-13.3,0-36.9-2.1-45.2-16.6c-2.6-4.6-3.9-10-3.9-16.5l3-22.3l1.6-6.9l18.1-80.3c0,0,0.9-4.5,1.1-5.2c0.4,0.5,6.5,0.8,41.2,0.5c-0.1,0.3-0.2,0.5-0.3,1c-3.2,9.4-21,80.7-21,80.7c-0.1,0.1-3.4,21.3-3.4,21.3l0.2,3.6c1.1,10.5,7.6,16.1,18.7,16.1c6.9,0,12.9-2.1,18.1-6.3c9-7.2,11.6-18.5,15.2-34.4c0.1,0,17-78.3,18-82.5c2.4,0.5,9.8,0.8,34.9,0.5c-0.1,0.3-0.2,0.5-0.3,1c-3.1,9.6-21.5,83.7-21.5,83.7l-2.1,7.9C237.3,458.4,232.3,475.9,213.3,487.1z M342.2,451.9l-2,8.6c-3.9,18.7-4.6,22.2-6.8,35l-1.4,1.1c-10.4-0.1-15.1-0.2-25,0.3L249.4,744c-8,34.1,13.1,62,47.3,62h-13.3c-34.2,0-55.4-27.8-47.4-62l72-309.3c-0.7-0.2-1.5-0.3-2.5-0.3c-3,0-6.1,1.4-9.2,2.8c-1.7,6.2-5.2,23.6-6.9,31.5c-3.5,16.7-3.8,18.6-5.4,26.8l-1.1,1.1c-12.6-0.2-17-0.2-31.6,0.5l-0.7-1.2c2.5-9.9,4.9-20,7.2-29.8c6.1-26.9,7.5-37.2,9.3-50.9l1.1-0.8c14.2-1.9,17.7-2.4,33-5.6l1.3,1.5l-2.3,8.6c2.6-1.5,5.1-3.1,7.8-4.5c1.7-0.8,3.4-1.5,5.2-2.1l36.5-156.7c7.2-30.8,35.6-56.5,66.1-61.3h1.8h11.1h0.4c-30.5,4.8-58.9,30.5-66.1,61.3l-35.9,154.2c0.2,0,0.5,0,0.7,0c6.7,0,14.1,1.9,17.2,9.7C348,426.5,346.1,435.1,342.2,451.9z M393.8,446.5c-1.4,5.9-2.8,11.7-4.1,17.5c-2.8,12.4-3.9,17-4.5,20.3c-0.7,3.1-0.8,4.9-1.9,11.3l-0.7,0.6l-0.7,0.5c-7.4,0-12.2-0.2-16.8,0c-4.6,0-9.1,0.3-16,0.6l-0.4-0.6l-0.4-0.6c1.8-7.1,2.9-9.6,3.8-12.1c0.9-2.5,1.8-5.1,3.5-12.3c2.1-9.4,3.5-16,4.4-21.7c1-5.6,1.5-10.3,2.3-15.8l0.5-0.4l0.6-0.5c7.3-1.1,12.1-1.7,16.8-2.4c4.8-0.7,9.7-1.7,17.3-3.1l0.3,0.7l0.2,0.6C396.6,434.7,395.2,440.5,393.8,446.5z M395.4,421.3c-8.2,5.7-20.4,6.9-27.2,2.9c-6.9-4.1-6-11.9,2.3-17.5c8.2-5.7,20.3-6.9,27.2-2.8C404.6,407.8,403.5,415.6,395.4,421.3z M406.3,455.2c2.7-11.3,7-23.2,16.4-31.9c13.2-12.2,29.9-12.9,37-12.9c11.7,0,23,2.6,29.4,10.8c4.2,5.4,7.5,14.2,3.2,33.1c-1.3,5.7-5.1,19.5-13.5,28.8c-10.8,11.5-25.1,15.3-39.2,15.3c-5.5,0-13.9-0.7-19.9-3.2C400.5,487.6,403.6,466.7,406.3,455.2z M502.4,596.5h-31.1l-4.8,15.8h31.9l-5.8,19.2h-31.8l-7.7,25.7c-0.9,2.8,7.5,3.3,10.6,3.3l15.9-2.2l-6.4,21.2h-35.9c-2.9,0-5.1-0.4-8.2-1.1c-3-0.7-4.3-2.1-5.7-4.2c-1.3-2.1-3.3-3.8-1.9-8.3l10.3-34.1H414l5.9-19.5h17.8l4.7-15.8h-17.6l5.6-18.6h77.9L502.4,596.5z M514.6,544.6l-5.9,19.4h-43.6l-4.8,4.1c-2,2-2.7,1.2-5.4,2.6c-2.4,1.2-7.6,3.7-14.4,3.7h-14l5.6-18.7h4.2c3.6,0,6-0.3,7.2-1.1c1.4-0.8,3-2.8,4.7-6.1l8-14.5h31.8l-5.6,10.6L514.6,544.6L514.6,544.6z M765.3,412.3c5.2,2,8.5,5.2,10.8,8.9c0.2-1.1,0.3-2.3,0.5-3.4l1.1-0.9c14.7-2.1,18.8-2.7,34.1-5.6l0.5,1.3c-2.8,11.6-5.6,23.2-8.3,34.8c-5.6,24.4-7.7,36.8-9.9,49.5l-1.3,1c-14.8-0.1-19.1-0.1-32.8,0.5l-0.9-1.1c0.5-1.7,0.9-3.4,1.4-5.1c-5,4.2-10.4,7.1-16.2,7.4c-5.5,0.2-11-0.6-17.1-3.1c-19-7.5-16-28.3-13.3-39.7c2.6-11.3,7.1-23.1,16.4-31.7C743.3,413.1,758.7,409.8,765.3,412.3z M596.5,497c1.1-4.4,23.8-98.2,23.8-98.2c0,0,9.5-44.2,9.5-44.2s0.8-3.5,1.1-5.4c4.4,0.5,15,0.7,41.6,0.4c0,0,10.2-0.1,10.2-0.1c20.8,0.1,38.7,0.3,47.8,12.9c3.6,4.8,4.8,10.8,4.8,17c0,4.6-0.7,9.4-1.6,13.3c-3.7,16-12,29.2-23.9,38.1c-17.7,13-40.3,13-60.3,13h-2.1c-1.5,0.8-2.9,2.8-2.9,2.8c-0.3,0.7-4.8,19.9-4.8,19.9c-0.1,0-5.4,26.2-6.4,30.6C629.2,496.8,619.6,496.8,596.5,497z M605.2,626.8c-1.1,3.7-2,6.6-4.8,9c-3,2.5-6.5,5.2-14.6,5.2l-15.1,0.6l-0.1,13.5c-0.2,3.9,0.8,3.5,1.4,4.1c0.7,0.7,1.3,1,2,1.2l4.8-0.2l14.4-0.8l-5.9,19.8h-16.6c-11.6,0-20.2-0.3-23-2.5c-2.8-1.7-3.2-4-3.1-7.7l1.1-52.9H572l-0.4,10.8h6.4c2.2,0,3.6-0.2,4.6-0.8c0.7-0.6,1.4-1.4,1.8-2.8l2.6-8.4h20.8L605.2,626.8z M697.7,679.5h-28.3l1.9-6.4h-57.6l5.8-18.8h5.8l30.2-100l6-20.2h28.9l-3,10.2c0,0,7.7-5.6,15-7.5c6-1.5,35.7-2.3,45.8-2.5l0-0.1h30.9l0.3,11.5c-0.1,1.9,1.5,2.8,5.1,2.8h6.3l-5.7,19h-16.7c-14.4,1.1-19.9-5.1-19.5-12.1l-0.3-11.2l-3.1,10.1h-9.9l-29.8,98.5h8l-6.2,20.3h-8L697.7,679.5z M825.5,591.9h-31l-4.9,15.4h31.1l-5.1,16.9H782l-6,7.2h13.6l3.3,21.3c0.4,2.1,0.4,3.5,1.1,4.4c0.7,0.8,4.7,1.2,7.2,1.2h4.1l-6.3,20.7h-10.5c-1.7,0-4-0.1-7.3-0.3c-3.2-0.2-5.4-2.1-7.5-3.1c-1.9-0.9-4.8-3.3-5.4-7.2L765,647l-15.2,20.9c-4.9,6.6-11.5,11.7-22.6,11.7h-21.4l5.6-18.5h8.2c2.4,0,4.5-1,6-1.7c1.6-0.7,3-1.5,4.6-3.8l22.2-31.4H723l5-16.9h33.6l4.8-15.4h-33.2l5.7-19.1h92.4L825.5,591.9z M832,555c-3.8,7-10.8,12.2-21.9,12.2l-19-0.3l5.6-18.4h3.7c1.9,0,3.3-0.2,4.4-0.7c1-0.3,1.7-1,2.5-2.1l6.7-10.8c9.4-14.4,11.8-20.6,21.7-36.9c-1.8-18.3-2.6-24.2-4-36.2c-0.9-7.2-2-14.5-2.8-21.7c-1.8-14.8-1.4-12.7-3.2-22.1l-0.1-0.3c0.1-0.5,0.1-1.1,0.2-1.6l1.2-1c14.7-1.9,15.1-2.4,30.9-5.4l1.3,1.3l2.1,40.9c0.1,0.9,0.1,1.4,0.1,2.3c8.5-18.8,8.1-13.6,18.5-37.7l0.1,0.2c0.1-0.2,0.1-0.5,0.2-0.6l1-1c14-1.9,16.7-2.4,31.9-5.4l1.1,1.3L832,555z"/>
    </g>
	<g id="visa_mastercard_ru">
		<rect class="cls-1" x="1" y="4" width="19" height="13" rx="2.5" ry="2.5"/>
		<rect x="1" y="13.5" width="19" height="3"/>
		<path id="RU" class="cls-2" d="M6.877,10.49V8.166H7.033a0.743,0.743,0,0,1,.434.133,1.334,1.334,0,0,1,.32.441l0.946,1.75h2L9.876,8.831a2.252,2.252,0,0,0-.248-0.356,1.787,1.787,0,0,0-.283-0.3,1.766,1.766,0,0,0-.461-0.211,2.139,2.139,0,0,0,.621-0.227,1.532,1.532,0,0,0,.762-1.383A1.582,1.582,0,0,0,10,5.426,1.335,1.335,0,0,0,9.3,4.9a4.284,4.284,0,0,0-1.254-.141H5.1V10.49H6.877Zm0-4.57H7.655a1.064,1.064,0,0,1,.66.148,0.58,0.58,0,0,1,.064.758,0.468,0.468,0,0,1-.287.18,2.664,2.664,0,0,1-.469.078H6.877V5.92Zm8.012,2.337a0.994,0.994,0,0,1-.26.736,1.119,1.119,0,0,1-1.437,0,1,1,0,0,1-.26-0.732V4.764H11.166V8.176a3.418,3.418,0,0,0,.164.968,1.813,1.813,0,0,0,.377.66,2.068,2.068,0,0,0,.607.494,2.39,2.39,0,0,0,.826.232,7.8,7.8,0,0,0,.912.059,3.568,3.568,0,0,0,1.238-.191A1.978,1.978,0,0,0,16,9.923a2.071,2.071,0,0,0,.5-0.789,2.872,2.872,0,0,0,.158-0.958V4.764H14.889V8.257Z" transform="translate(-0.375 2.828)"/>
	</g>
</svg>
